<svg id="Layer_1" data-name="Layer 1" xmlns="http://www.w3.org/2000/svg" viewBox="0 0 693.47 150.57"><defs><style>.cls-1{fill:#231f20;}</style></defs><path class="cls-1" d="M420,22.09a8.76,8.76,0,0,0-8.76,8.76V53.51L455,97.33l-43.82,43.81v22.67A8.75,8.75,0,0,0,426.12,170l72.71-72.69L426.15,24.65a8.75,8.75,0,0,0-6.2-2.56Z" transform="translate(-23 -22)"/><path class="cls-1" d="M382.31,24.63a8.76,8.76,0,0,0-14.93,6.22V163.78a8.76,8.76,0,0,0,15,6.18l28.81-28.82V53.51L382.31,24.63Z" transform="translate(-23 -22)"/><path class="cls-1" d="M42.11,167.84,34.5,150.55h-.29l-7.54,16.82a12.72,12.72,0,0,1-1.81,3.19,3.17,3.17,0,0,1-1.86.94v.57h7v-.57a6,6,0,0,1-2.07-.38,1.4,1.4,0,0,1-.71-1.31,4.58,4.58,0,0,1,.43-1.69l.89-2.05H36l1.12,2.63c.29.68.44,1.07.46,1.16a2,2,0,0,1,.1.58.82.82,0,0,1-.35.71,3.13,3.13,0,0,1-1.72.35h-.42v.57h10.2v-.57a2.41,2.41,0,0,1-1.49-.57,10.4,10.4,0,0,1-1.79-3.09Zm-13-2.92,3.24-7.26,3.14,7.26Z" transform="translate(-23 -22)"/><path class="cls-1" d="M58.31,168.92V157.53H52.39v.58a1.86,1.86,0,0,1,1.26.52,4.06,4.06,0,0,1,.31,2.06v7.77a6.46,6.46,0,0,1-1.49,1.63,1.79,1.79,0,0,1-1,.3,1.28,1.28,0,0,1-.75-.23,1.38,1.38,0,0,1-.46-.69,8.14,8.14,0,0,1-.15-2v-9.93H44.18v.58a1.86,1.86,0,0,1,1.26.52,4.06,4.06,0,0,1,.31,2.06v5.76a13,13,0,0,0,.33,3.54,3.72,3.72,0,0,0,1.27,1.77,3.49,3.49,0,0,0,2.19.74,4.75,4.75,0,0,0,2.33-.56A7.51,7.51,0,0,0,54,170.13v1.94h5.93v-.56a1.82,1.82,0,0,1-1.27-.51,4.34,4.34,0,0,1-.31-2.08Z" transform="translate(-23 -22)"/><path class="cls-1" d="M67.32,162.68a15.49,15.49,0,0,1-2.78-2.19,1.29,1.29,0,0,1-.31-.81,1.33,1.33,0,0,1,.45-1,1.54,1.54,0,0,1,1.09-.43,3.25,3.25,0,0,1,2,.81,7.72,7.72,0,0,1,2,3h.54l-.24-5h-.53a3.33,3.33,0,0,1-.55.67.92.92,0,0,1-.44.1,1.46,1.46,0,0,1-.69-.23,5,5,0,0,0-2.29-.58,4.23,4.23,0,0,0-3.36,1.37,4.6,4.6,0,0,0-1.14,3,4.38,4.38,0,0,0,1,2.81,16.4,16.4,0,0,0,3.08,2.52,11.42,11.42,0,0,1,2.08,1.65,1.92,1.92,0,0,1,.47,1.29,1.53,1.53,0,0,1-.48,1.12,1.67,1.67,0,0,1-1.22.45,3.69,3.69,0,0,1-2.31-1,6.7,6.7,0,0,1-1.91-3.08h-.53l.25,5.23H62c.23-.52.51-.78.85-.78a2.06,2.06,0,0,1,.64.17,8.65,8.65,0,0,0,2.79.66,5,5,0,0,0,2.44-.63,4.32,4.32,0,0,0,1.71-1.78,5.07,5.07,0,0,0,.6-2.39,4.2,4.2,0,0,0-.73-2.41,11.08,11.08,0,0,0-3-2.62Z" transform="translate(-23 -22)"/><path class="cls-1" d="M77.76,152.21h-.52a17,17,0,0,1-2.41,3.41,20.51,20.51,0,0,1-3.32,2.91v.54H73.4v7.85a14.75,14.75,0,0,0,.16,2.86,3.45,3.45,0,0,0,1.21,1.73,3.68,3.68,0,0,0,2.35.76,4.25,4.25,0,0,0,4.09-3l-.47-.34c-.6,1-1.24,1.54-1.91,1.54a.93.93,0,0,1-.55-.22,1.24,1.24,0,0,1-.41-.59,6.93,6.93,0,0,1-.11-1.63v-9h3.45v-1.54H77.76v-5.32Z" transform="translate(-23 -22)"/><path class="cls-1" d="M92.94,157.1a3.8,3.8,0,0,0-2.1.74,10.67,10.67,0,0,0-2.53,3v-3.3H82.37v.58a2.36,2.36,0,0,1,1,.27,1.24,1.24,0,0,1,.45.64,5.68,5.68,0,0,1,.13,1.59v8a4.78,4.78,0,0,1-.35,2.35,1.69,1.69,0,0,1-1.27.51v.56h7.85v-.56a3.48,3.48,0,0,1-1.24-.23,1.36,1.36,0,0,1-.55-.63,3.58,3.58,0,0,1-.11-1.13v-4.21A10.59,10.59,0,0,1,88.8,162a3.22,3.22,0,0,1,1-1.51,1.29,1.29,0,0,1,.86-.34.68.68,0,0,1,.35.09c.07,0,.31.24.72.59a2.11,2.11,0,0,0,1.43.53,1.55,1.55,0,0,0,1.21-.57,2.39,2.39,0,0,0,.52-1.62,2,2,0,0,0-.54-1.51,1.77,1.77,0,0,0-1.38-.54Z" transform="translate(-23 -22)"/><path class="cls-1" d="M107.85,170.28a.56.56,0,0,1-.36-.12.79.79,0,0,1-.23-.38,6,6,0,0,1-.08-1.26v-5.64a12.51,12.51,0,0,0-.22-3,4,4,0,0,0-1.57-1.9,5.39,5.39,0,0,0-3.26-.88,9.85,9.85,0,0,0-3.3.54,5.5,5.5,0,0,0-2.48,1.57,3.18,3.18,0,0,0-.88,2.13,1.82,1.82,0,0,0,.66,1.39,2.38,2.38,0,0,0,1.64.58,2.07,2.07,0,0,0,1.48-.52,1.75,1.75,0,0,0,.58-1.31,2,2,0,0,0-.6-1.29,1.34,1.34,0,0,1-.43-.81.77.77,0,0,1,.4-.65,2.87,2.87,0,0,1,1.66-.45,2,2,0,0,1,1.13.32,1.61,1.61,0,0,1,.66.75,6.5,6.5,0,0,1,.19,2.07v1.46a26.31,26.31,0,0,0-6.23,3.55,4,4,0,0,0-1.43,3,2.76,2.76,0,0,0,.82,2.05,2.84,2.84,0,0,0,2.07.81q2.1,0,4.77-2.35a2.72,2.72,0,0,0,.86,1.78,3,3,0,0,0,1.94.57,3.49,3.49,0,0,0,1.88-.51,5.94,5.94,0,0,0,1.62-1.68l-.46-.37a1.13,1.13,0,0,1-.83.57Zm-5-1.49a3,3,0,0,1-1.8.87,1.45,1.45,0,0,1-1.09-.42,1.79,1.79,0,0,1-.52-1.26,2.93,2.93,0,0,1,.61-1.7,9,9,0,0,1,2.8-2.36v4.87Z" transform="translate(-23 -22)"/><path class="cls-1" d="M115.48,169.05V151h-6.1v.58a1.9,1.9,0,0,1,1.39.5,3.47,3.47,0,0,1,.35,1.94v15.05a3.46,3.46,0,0,1-.31,1.9,1.9,1.9,0,0,1-1.43.56v.56h7.85v-.56a2,2,0,0,1-1.4-.48,3.53,3.53,0,0,1-.35-2Z" transform="translate(-23 -22)"/><path class="cls-1" d="M119.74,152.9a2.39,2.39,0,0,0,2.39,2.39,2.32,2.32,0,0,0,1.7-.7,2.4,2.4,0,0,0-1.7-4.1,2.25,2.25,0,0,0-1.69.71,2.3,2.3,0,0,0-.7,1.7Z" transform="translate(-23 -22)"/><path class="cls-1" d="M124.31,169.05V157.53h-6.1v.58a1.9,1.9,0,0,1,1.39.49,3.44,3.44,0,0,1,.35,2v8.49a3.46,3.46,0,0,1-.31,1.9,1.9,1.9,0,0,1-1.43.56v.56h7.85v-.56a1.94,1.94,0,0,1-1.39-.48,3.5,3.5,0,0,1-.36-2Z" transform="translate(-23 -22)"/><path class="cls-1" d="M139.55,170.28a.55.55,0,0,1-.35-.12.67.67,0,0,1-.23-.38,5.11,5.11,0,0,1-.09-1.26v-5.64a12.71,12.71,0,0,0-.21-3,4,4,0,0,0-1.57-1.9,5.37,5.37,0,0,0-3.26-.88,9.85,9.85,0,0,0-3.3.54,5.55,5.55,0,0,0-2.48,1.57,3.18,3.18,0,0,0-.88,2.13,1.81,1.81,0,0,0,.65,1.39,2.41,2.41,0,0,0,1.65.58,2.09,2.09,0,0,0,1.48-.52,1.74,1.74,0,0,0,.57-1.31,2,2,0,0,0-.59-1.29,1.36,1.36,0,0,1-.44-.81.79.79,0,0,1,.41-.65,2.87,2.87,0,0,1,1.66-.45,2,2,0,0,1,1.13.32,1.64,1.64,0,0,1,.67.75,7,7,0,0,1,.18,2.07v1.46a26.67,26.67,0,0,0-6.24,3.55,4,4,0,0,0-1.43,3,2.77,2.77,0,0,0,.83,2.05,2.8,2.8,0,0,0,2.07.81c1.4,0,3-.78,4.77-2.35a2.71,2.71,0,0,0,.85,1.78,3,3,0,0,0,1.94.57,3.52,3.52,0,0,0,1.89-.51,5.94,5.94,0,0,0,1.62-1.68l-.47-.37c-.28.38-.55.57-.83.57Zm-5-1.49a3,3,0,0,1-1.81.87,1.42,1.42,0,0,1-1.08-.42,1.74,1.74,0,0,1-.51-1.26,2.91,2.91,0,0,1,.6-1.7,9.17,9.17,0,0,1,2.8-2.36v4.87Z" transform="translate(-23 -22)"/><path class="cls-1" d="M155.31,168.9v-5.66a14.82,14.82,0,0,0-.25-3.41,3.69,3.69,0,0,0-1.25-1.94,3.47,3.47,0,0,0-2.34-.79,4.46,4.46,0,0,0-2.21.56,8.39,8.39,0,0,0-2.15,1.75v-1.88h-5.92v.58a1.86,1.86,0,0,1,1.26.52,4.18,4.18,0,0,1,.31,2.06v8.21a4.27,4.27,0,0,1-.27,2,1.79,1.79,0,0,1-1.3.59v.56h7.36v-.56a1.58,1.58,0,0,1-1.14-.54,4.38,4.38,0,0,1-.3-2.07v-7.79q1.15-1.92,2.49-1.92a1.12,1.12,0,0,1,.73.27,1.29,1.29,0,0,1,.48.71,10,10,0,0,1,.15,2.26v6.47a4.29,4.29,0,0,1-.26,1.92,1.5,1.5,0,0,1-1.17.69v.56h7.35v-.56a1.85,1.85,0,0,1-1.28-.51,4.61,4.61,0,0,1-.29-2.1Z" transform="translate(-23 -22)"/><path class="cls-1" d="M177.74,163.8h.55a2.73,2.73,0,0,1,1.29.29,1.6,1.6,0,0,1,.71.67,4.49,4.49,0,0,1,.17,1.6v4.39a10.9,10.9,0,0,1-1.65.48,8.24,8.24,0,0,1-1.55.16,6.65,6.65,0,0,1-3.8-1.08,6.12,6.12,0,0,1-2.3-3.35,17.83,17.83,0,0,1-.71-5.33,18.58,18.58,0,0,1,.65-4.88,7.24,7.24,0,0,1,2.22-3.7,5.87,5.87,0,0,1,3.94-1.33,7.3,7.3,0,0,1,4.55,1.58,9.37,9.37,0,0,1,3.13,4.64h.58V150.5h-.58a2.87,2.87,0,0,1-.69,1.22,1.24,1.24,0,0,1-.8.31,8.9,8.9,0,0,1-1.82-.58,13.93,13.93,0,0,0-2.21-.71,14.32,14.32,0,0,0-2.83-.25,11.51,11.51,0,0,0-8.41,3.28,10.8,10.8,0,0,0-3.34,8,10.55,10.55,0,0,0,1.08,4.8,10.2,10.2,0,0,0,2.37,3,12.76,12.76,0,0,0,3.5,2.15,13.29,13.29,0,0,0,5,.81,21.59,21.59,0,0,0,4.52-.47,20.56,20.56,0,0,0,4.22-1.35v-4.39a4.57,4.57,0,0,1,.14-1.45,1.56,1.56,0,0,1,.7-.79,4.44,4.44,0,0,1,1.63-.32v-.58H177.74v.58Z" transform="translate(-23 -22)"/><path class="cls-1" d="M199.14,158.07a6.78,6.78,0,0,0-3.53-1,5.93,5.93,0,0,0-5,2.33,8.55,8.55,0,0,0-1.81,5.44,8.44,8.44,0,0,0,1.78,5.33,6,6,0,0,0,5,2.3A6.23,6.23,0,0,0,200.9,170a8.41,8.41,0,0,0,1.57-5.18,9.18,9.18,0,0,0-.86-4,6.25,6.25,0,0,0-2.47-2.78Zm-1.56,11.49a2.58,2.58,0,0,1-.8,1.48,1.76,1.76,0,0,1-1.17.39,1.7,1.7,0,0,1-1.27-.58,3,3,0,0,1-.74-1.68,21.43,21.43,0,0,1-.22-3.1c0-2.1.06-3.73.18-4.9a4.12,4.12,0,0,1,.75-2.36,1.8,1.8,0,0,1,1.36-.61,1.62,1.62,0,0,1,1.06.33,2.71,2.71,0,0,1,.87,1.44,14.56,14.56,0,0,1,.3,3.63,34.05,34.05,0,0,1-.32,6Z" transform="translate(-23 -22)"/><path class="cls-1" d="M217.34,157.53h-4.76v.58a2,2,0,0,1,1.22.33,1,1,0,0,1,.36.78,9.38,9.38,0,0,1-.82,2.87l-1.91,4.71-2.4-5.46a7.13,7.13,0,0,1-.68-2.16,1.06,1.06,0,0,1,.37-.81,1.45,1.45,0,0,1,1-.26v-.58H202v.58a1.79,1.79,0,0,1,1,.54,10.58,10.58,0,0,1,1.39,2.58l4.9,11.28h.73l4.85-11.42a9.4,9.4,0,0,1,1.31-2.47,1.91,1.91,0,0,1,1.12-.51v-.58Z" transform="translate(-23 -22)"/><path class="cls-1" d="M227,158.91a5,5,0,0,0-3.83-1.81,6.09,6.09,0,0,0-4.62,2.16,8.26,8.26,0,0,0-2,5.78,8.81,8.81,0,0,0,1.34,5,5.52,5.52,0,0,0,4.9,2.48,5.65,5.65,0,0,0,3.31-1,8.85,8.85,0,0,0,2.61-3.42l-.52-.34a7,7,0,0,1-1.64,1.88,3,3,0,0,1-1.69.51,3.24,3.24,0,0,1-2.58-1.29,7.44,7.44,0,0,1-1.54-4.57h8a8.2,8.2,0,0,0-1.75-5.37Zm-6.3,4.33v-.55a6.73,6.73,0,0,1,.92-3.79,1.52,1.52,0,0,1,1.32-.79,1.31,1.31,0,0,1,.87.27,2.81,2.81,0,0,1,.84,1.42,13.79,13.79,0,0,1,.28,3.44Z" transform="translate(-23 -22)"/><path class="cls-1" d="M240.3,157.1a3.75,3.75,0,0,0-2.09.74,10.5,10.5,0,0,0-2.54,3v-3.3h-5.94v.58a2.28,2.28,0,0,1,1,.27,1.24,1.24,0,0,1,.45.64,5.68,5.68,0,0,1,.13,1.59v8A4.82,4.82,0,0,1,231,171a1.7,1.7,0,0,1-1.28.51v.56h7.86v-.56a3.49,3.49,0,0,1-1.25-.23,1.29,1.29,0,0,1-.54-.63,3.58,3.58,0,0,1-.11-1.13l0-.87v-3.34a10.58,10.58,0,0,1,.5-3.33,3.15,3.15,0,0,1,1-1.51,1.28,1.28,0,0,1,.85-.34.74.74,0,0,1,.36.09,8.94,8.94,0,0,1,.71.59,2.13,2.13,0,0,0,1.43.53,1.57,1.57,0,0,0,1.22-.57,2.44,2.44,0,0,0,.51-1.62,2,2,0,0,0-.53-1.51,1.79,1.79,0,0,0-1.39-.54Z" transform="translate(-23 -22)"/><path class="cls-1" d="M257.27,168.9v-5.66a14.82,14.82,0,0,0-.25-3.41,3.67,3.67,0,0,0-1.24-1.94,3.5,3.5,0,0,0-2.35-.79,4.48,4.48,0,0,0-2.21.56,8.37,8.37,0,0,0-2.14,1.75v-1.88h-5.93v.58a1.83,1.83,0,0,1,1.26.52,4,4,0,0,1,.32,2.06v8.21a4.42,4.42,0,0,1-.27,2,1.82,1.82,0,0,1-1.31.59v.56h7.36v-.56a1.62,1.62,0,0,1-1.14-.54,4.57,4.57,0,0,1-.29-2.07v-7.79q1.15-1.92,2.49-1.92a1.14,1.14,0,0,1,.73.27,1.35,1.35,0,0,1,.48.71,11,11,0,0,1,.14,2.26v6.47a4.34,4.34,0,0,1-.25,1.92,1.53,1.53,0,0,1-1.18.69v.56h7.35v-.56a1.82,1.82,0,0,1-1.27-.51,4.42,4.42,0,0,1-.3-2.1Z" transform="translate(-23 -22)"/><path class="cls-1" d="M283,168.9v-6a12,12,0,0,0-.35-3.39,3.54,3.54,0,0,0-1.24-1.75,3.78,3.78,0,0,0-2.4-.7,4.94,4.94,0,0,0-2.4.62,9.2,9.2,0,0,0-2.38,2,3.74,3.74,0,0,0-3.81-2.64,4.74,4.74,0,0,0-2.24.53,8,8,0,0,0-2.2,1.81v-1.91H260v.58a1.81,1.81,0,0,1,1.26.52,4.06,4.06,0,0,1,.31,2.06v8.21a4.33,4.33,0,0,1-.26,2,1.82,1.82,0,0,1-1.31.59v.56h7.5v-.56a1.62,1.62,0,0,1-1.28-.58,4.53,4.53,0,0,1-.29-2v-7.81a6,6,0,0,1,1.56-1.65,2.08,2.08,0,0,1,1.13-.33,1.21,1.21,0,0,1,.77.29,1.43,1.43,0,0,1,.53.77,10.93,10.93,0,0,1,.16,2.48v6.25a6.37,6.37,0,0,1-.13,1.66,1.27,1.27,0,0,1-.46.65,1.65,1.65,0,0,1-.95.3v.56h7.53v-.56a1.61,1.61,0,0,1-1.37-.64,4.36,4.36,0,0,1-.27-2v-7.81a6.14,6.14,0,0,1,1.39-1.46,2.28,2.28,0,0,1,1.35-.5,1.19,1.19,0,0,1,.78.27,1.4,1.4,0,0,1,.49.77,11.17,11.17,0,0,1,.16,2.48v6.25a4,4,0,0,1-.28,1.92,1.66,1.66,0,0,1-1.31.69v.56h7.51v-.56a1.86,1.86,0,0,1-1.27-.53,4.29,4.29,0,0,1-.3-2.08Z" transform="translate(-23 -22)"/><path class="cls-1" d="M295.7,158.91a4.94,4.94,0,0,0-3.82-1.81,6.09,6.09,0,0,0-4.62,2.16,8.21,8.21,0,0,0-1.95,5.78,8.81,8.81,0,0,0,1.33,5,5.51,5.51,0,0,0,4.9,2.48,5.69,5.69,0,0,0,3.31-1,8.85,8.85,0,0,0,2.61-3.42l-.52-.34a7,7,0,0,1-1.64,1.88,3,3,0,0,1-1.69.51,3.24,3.24,0,0,1-2.58-1.29,7.44,7.44,0,0,1-1.54-4.57h8a8.2,8.2,0,0,0-1.76-5.37Zm-6.29,4.33v-.55a6.73,6.73,0,0,1,.92-3.79,1.52,1.52,0,0,1,1.32-.79,1.28,1.28,0,0,1,.86.27,2.82,2.82,0,0,1,.85,1.42,13.79,13.79,0,0,1,.28,3.44Z" transform="translate(-23 -22)"/><path class="cls-1" d="M312.14,168.9v-5.66a14.82,14.82,0,0,0-.25-3.41,3.73,3.73,0,0,0-1.24-1.94,3.48,3.48,0,0,0-2.35-.79,4.48,4.48,0,0,0-2.21.56,8.2,8.2,0,0,0-2.14,1.75v-1.88H298v.58a1.81,1.81,0,0,1,1.26.52,4,4,0,0,1,.32,2.06v8.21a4.42,4.42,0,0,1-.27,2,1.8,1.8,0,0,1-1.31.59v.56h7.36v-.56a1.62,1.62,0,0,1-1.14-.54,4.42,4.42,0,0,1-.29-2.07v-7.79q1.14-1.92,2.49-1.92a1.12,1.12,0,0,1,.73.27,1.35,1.35,0,0,1,.48.71,11,11,0,0,1,.14,2.26v6.47a4.34,4.34,0,0,1-.25,1.92,1.53,1.53,0,0,1-1.18.69v.56h7.35v-.56a1.8,1.8,0,0,1-1.27-.51,4.42,4.42,0,0,1-.3-2.1Z" transform="translate(-23 -22)"/><path class="cls-1" d="M319.9,152.21h-.52a17,17,0,0,1-2.41,3.41,20.51,20.51,0,0,1-3.32,2.91v.54h1.89v7.85a14.75,14.75,0,0,0,.16,2.86,3.45,3.45,0,0,0,1.21,1.73,3.66,3.66,0,0,0,2.35.76,4.26,4.26,0,0,0,4.09-3l-.46-.34c-.61,1-1.24,1.54-1.92,1.54a.88.88,0,0,1-.54-.22,1.19,1.19,0,0,1-.42-.59,6.93,6.93,0,0,1-.11-1.63v-9h3.45v-1.54H319.9v-5.32Z" transform="translate(-23 -22)"/><path class="cls-1" d="M148,113.37l-.4.4a1,1,0,0,0,.4-.4Z" transform="translate(-23 -22)"/><path class="cls-1" d="M152.35,84.13a.76.76,0,1,0-.76.77.77.77,0,0,0,.76-.77Z" transform="translate(-23 -22)"/><path class="cls-1" d="M159.43,52.72h0l0,22.16c0,2.14.9,4,2.15,4.58l10.55,6.3a1.26,1.26,0,0,0,1.82.1l10.71-6.4c1.26-.57,2.16-2.44,2.16-4.58l0-22.16H159.43Zm4.51,2.14.44,0,.27-.47.26.46.45,0-.21.39.34.35-.44.09v.47l-.4-.3-.41.3v-.47l-.43-.09.34-.35-.21-.39Zm-.12,5c.8,0,.57.77.71.77s0-.77.52-.77c.79,0,1.78,2,.88,2-.38,0-.07-.28-.08-.34s-.21-.18-.29-.18c-.26,0-.36.42-.58.44s-.26,0-.26-.18.32-.25.45-.37c-1.79,0-1.82.81-2.09.81-.47,0,.39-.86.63-1.11-.36-.06-.57-.5-1-.72.18-.27.29-.16.52,0,0-.19.14-.4.55-.4Zm0,6.75.34-.35-.21-.39.44,0,.27-.47.26.46.45,0-.21.39.34.35-.44.08v.48l-.4-.3-.41.3v-.48l-.43-.08Zm-3.6-13.13h2.89v5.68h-2.89V53.47Zm.35,7.65.34-.35-.21-.38.44,0,.26-.47.27.46.45,0-.22.38.34.35-.43.09v.48l-.41-.31-.4.31v-.48l-.43-.09Zm-.35,1.68h2.89v5.38h-2.89V62.8Zm8.34,19.94L162,78.82a4.7,4.7,0,0,1-1.78-3.65V68.93h8.34V82.74Zm0-14.56h-2.37V62.8h2.37v5.38ZM167,60.39l.44,0,.27-.47.26.46.45,0-.21.38.34.35-.44.09v.48l-.4-.31-.41.31v-.48l-.43-.09.34-.35-.21-.38Zm1.59-1.24h-2.37V53.47h2.37v5.68Zm8.46,24L174,85h-.05a1.24,1.24,0,0,1-.8.29,1.27,1.27,0,0,1-.8-.3l-3-1.8V68.93H177V83.19Zm0-15H169.3V53.47H177V68.18Zm9.09,7a4.66,4.66,0,0,1-1.78,3.65l-6.57,3.92V68.93h8.35v6.24Zm0-7h-8.35V53.47h8.35V68.18Z" transform="translate(-23 -22)"/><path class="cls-1" d="M160.55,72.67c0,.11.07.25.25.34-.08.08-.15.27-.15.78,0,1.76,1.1,2.57,1.9,2.57.58,0,.49-.4.55-.6,0,.3.31-.14.31.38s-.55.3-.55.77c0,.62.88,0,.88.66a8,8,0,0,1-.11,1.15c0,.22.92-.31.86-.41.23.09.21.74.62.72s.33-.67.54-.72c-.13,0,.82.62.82.32,0-.81-.33-.47-.33-1s1.13-.41,1-.68-.26-.08-.37-.47c0,.07-.9-1.3.18-.59s1.26-1.72,1.2-1.85-.53.13-.73.24a3.22,3.22,0,0,1,.81-1.06c-.05-.35-.5,0-1,.21,1.56-2.23.56-1.32-.31-1.16,1.4-1.5,1-1.47,0-1,.81-.64,1-1.4.86-1.62-.76,1-1.46.85-1.46,1.79a3.74,3.74,0,0,1-.54,2c-.4.44-.09-1.65-1.16-1.65-.35,0-1.15,0-1.4.38.22,0,.54.56.54.78s.21.83-.15.83-.79-.77-.79-1.14,0-.28,0-.8a3,3,0,0,0-2-2.14c0,.62.8.76.8,1.55-.34,0-.83-.64-.83-.24s.51.47.51.81-.58-.12-.58.25.32.27.4.59c-.24-.07-.45,0-.5.08Z" transform="translate(-23 -22)"/><path class="cls-1" d="M197.38,79.81a.8.8,0,1,0-.9-.8.85.85,0,0,0,.9.8Z" transform="translate(-23 -22)"/><path class="cls-1" d="M192.83,81.18a.91.91,0,1,0,.9-.8.85.85,0,0,0-.9.8Z" transform="translate(-23 -22)"/><path class="cls-1" d="M150.37,85.38a.81.81,0,1,0,.9.8.86.86,0,0,0-.9-.8Z" transform="translate(-23 -22)"/><path class="cls-1" d="M153.18,87.21a.8.8,0,1,0-.9-.79.85.85,0,0,0,.9.79Z" transform="translate(-23 -22)"/><path class="cls-1" d="M231.91,55.35a5.64,5.64,0,0,0-.67-6c-.33-.34-.09-1.11-.71-1.21-.86,2-.1,4.29.86,6.07.09.39,0,1.06.52,1.11Z" transform="translate(-23 -22)"/><path class="cls-1" d="M116.27,55.16c.23,0,.19.43.43.19a8.41,8.41,0,0,1,0-3.8,3.45,3.45,0,0,0-1.44-2.36.35.35,0,0,0-.47.09c.47,1.88-.39,4.53,1.48,5.88Z" transform="translate(-23 -22)"/><path class="cls-1" d="M234.74,53c.38-.24.9-.77.62-1.3a1.25,1.25,0,0,0-1.24-.48,1.1,1.1,0,0,0-.58,1.25,1.22,1.22,0,0,0,1.2.53Z" transform="translate(-23 -22)"/><path class="cls-1" d="M113.15,54.87a1.39,1.39,0,0,0,.62-1.06c-.14-.38-.47-.48-.8-.62a1.09,1.09,0,0,0-.92.43.88.88,0,0,0,.19,1c.19.24.63.24.91.24Z" transform="translate(-23 -22)"/><path class="cls-1" d="M235.94,55.84a1.09,1.09,0,0,0,1.29-.44,1.13,1.13,0,0,0,0-.77,1.56,1.56,0,0,0-1-.48,1.5,1.5,0,0,0-.82.87,1.33,1.33,0,0,0,.54.82Z" transform="translate(-23 -22)"/><path class="cls-1" d="M233.54,56.12c.43.15.76-.24,1-.48.05-.29.34-.77,0-1a1.16,1.16,0,0,0-.91-.24,1.06,1.06,0,0,0-.67,1.11c.1.33.38.33.62.57Z" transform="translate(-23 -22)"/><path class="cls-1" d="M230.43,56.7c.62-.09.57-.77.57-1.3a1.3,1.3,0,0,0-.95-.53,1.13,1.13,0,0,0-.72,1.15.9.9,0,0,0,1.1.68Z" transform="translate(-23 -22)"/><path class="cls-1" d="M118.37,56.65c.29-.24.76-.53.62-1a.89.89,0,0,0-1.39-.43c-.09.29-.52.58-.19.91a1,1,0,0,0,1,.53Z" transform="translate(-23 -22)"/><path class="cls-1" d="M115.59,56.7a1,1,0,0,0,.53-.91c-.19-.34-.53-.83-1.05-.63a.8.8,0,0,0-.43,1.1.84.84,0,0,0,1,.44Z" transform="translate(-23 -22)"/><path class="cls-1" d="M219.85,62.2c.68-.63.34-1.83.53-2.75a10.05,10.05,0,0,0-1-3.47c-.14-.24-.14-.72-.52-.58-.28,1.64-1.05,3.62-.19,5.3.43.44.48,1.26,1.14,1.5Z" transform="translate(-23 -22)"/><path class="cls-1" d="M112.68,55.93a1.2,1.2,0,0,0-.63,1.16,1.13,1.13,0,0,0,1.2.67c.33-.33.76-.63.62-1.2a1.22,1.22,0,0,0-1.19-.63Z" transform="translate(-23 -22)"/><path class="cls-1" d="M227.23,62.58A7,7,0,0,0,227,58a1.88,1.88,0,0,1-.77-1.44c-.14-.29-.33-.58-.67-.34a6.48,6.48,0,0,0-.58,2.75,18.8,18.8,0,0,0,2,3.9l.29-.24Z" transform="translate(-23 -22)"/><path class="cls-1" d="M231.72,56.51a1,1,0,0,0-.52,1.16.86.86,0,0,0,1.1.57,1.2,1.2,0,0,0,.71-1.15c-.23-.38-.76-.87-1.29-.58Z" transform="translate(-23 -22)"/><path class="cls-1" d="M115.45,59.5a1,1,0,0,0,.72-.92c-.1-.48-.53-.67-1-.92-.29.1-.62.1-.77.39a1.18,1.18,0,0,0,0,1.11c.34.15.63.63,1,.34Z" transform="translate(-23 -22)"/><path class="cls-1" d="M116.64,58.73c.25.34.53.77,1.1.57.2-.23.73-.47.53-1s-.53-.82-1.1-.67c-.33.28-.62.57-.53,1.06Z" transform="translate(-23 -22)"/><path class="cls-1" d="M233.26,60.08c.09-.63,1.05-1.25,1.1-1.89a7.1,7.1,0,0,0-3.88,2.51c-.53.87-1.39,1.74-1.29,2.7a2.28,2.28,0,0,0,1.1-.62,4.89,4.89,0,0,0,3-2.7Z" transform="translate(-23 -22)"/><path class="cls-1" d="M116.84,63a.4.4,0,0,0,.33-.49,17.45,17.45,0,0,1-2-2.26c-.62-.82-1.53-1-2.34-1.64-.34.05-1-.38-1.1.15,1.14,1.69,2.72,4.09,5.07,4.24Z" transform="translate(-23 -22)"/><path class="cls-1" d="M230.43,66.49c.53.33,1.1-.2,1.63-.39a6.19,6.19,0,0,0,3-5.21h-.39a24.47,24.47,0,0,0-4.21,5.6Z" transform="translate(-23 -22)"/><path class="cls-1" d="M225,63.69a1.18,1.18,0,0,0,.81-1.4c-.24-.23-.38-.48-.67-.58a.75.75,0,0,0-.57.15,1,1,0,0,0-.68,1.06c.25.38.58.82,1.11.77Z" transform="translate(-23 -22)"/><path class="cls-1" d="M115.17,65a28.49,28.49,0,0,0-2.59-2.26,8.74,8.74,0,0,0-2.92-.63c-.33.15-1-.05-1,.48,1.67.48,2.77,1.88,4.4,2.46.71,0,1.49.39,2.11-.05Z" transform="translate(-23 -22)"/><path class="cls-1" d="M125.64,64.7a1.06,1.06,0,0,0,.72-1.1c-.1-.44-.57-.49-1-.59-.38.2-.86.59-.67,1.11s.53.44.91.58Z" transform="translate(-23 -22)"/><path class="cls-1" d="M122.29,64.85c.29.38.82.14,1.15-.15a1,1,0,0,0-.19-1.1c-.39-.39-1-.1-1.29.24s.05.72.33,1Z" transform="translate(-23 -22)"/><path class="cls-1" d="M225.31,64.46a.91.91,0,0,0-.71.73c0,.63.62.72,1.1.86.38-.19.81-.57.61-1.11a.94.94,0,0,0-1-.48Z" transform="translate(-23 -22)"/><path class="cls-1" d="M228.47,66.1c.14-.2.29-.24.48-.38.38-.24.05-.63-.1-.87s-.48-.44-.81-.34-.82.48-.72,1a.92.92,0,0,0,1.15.58Z" transform="translate(-23 -22)"/><path class="cls-1" d="M109.57,65.43a1.81,1.81,0,0,0,.38.62.94.94,0,0,0,1.29-.62,1.16,1.16,0,0,0-1.15-.83.89.89,0,0,0-.52.83Z" transform="translate(-23 -22)"/><path class="cls-1" d="M125.5,66.49c.24.33.57.72,1,.67a1.54,1.54,0,0,0,.82-.92,1.09,1.09,0,0,0-1.3-.72,1,1,0,0,0-.57,1Z" transform="translate(-23 -22)"/><path class="cls-1" d="M123,66.15c-.09.48.24.67.53.92.47.28.91-.15,1.19-.39a.75.75,0,0,0-.14-.77c-.29-.19-.48-.43-.86-.34a2.28,2.28,0,0,0-.72.58Z" transform="translate(-23 -22)"/><path class="cls-1" d="M235.21,65.81a1.66,1.66,0,0,0-.9.63c0,.24-.1.63.19.72a.94.94,0,0,0,1.05.24,1.27,1.27,0,0,0,.62-.91,1.75,1.75,0,0,0-1-.68Z" transform="translate(-23 -22)"/><path class="cls-1" d="M238.33,67.79a1.2,1.2,0,0,0,.9-.87.83.83,0,0,0-1.19-.48.85.85,0,0,0-.43.77c-.1.43.43.53.72.58Z" transform="translate(-23 -22)"/><path class="cls-1" d="M115.79,67c-.29.19-.72.09-.82.53a.84.84,0,0,0,.24,1c.24.19.58.43.91.24a.94.94,0,0,0,.58-1.15,1.18,1.18,0,0,0-.91-.58Z" transform="translate(-23 -22)"/><path class="cls-1" d="M118.66,68.85c.09-.29.53-.44.38-.82-.24-.58-1.24-1-1.63-.24-.33.43,0,.86.39,1.15a.79.79,0,0,0,.86-.09Z" transform="translate(-23 -22)"/><path class="cls-1" d="M232.25,67.4a1,1,0,0,0-.53.92.84.84,0,0,0,1,.58c.29-.29.72-.63.67-1.11a1,1,0,0,0-1.1-.39Z" transform="translate(-23 -22)"/><path class="cls-1" d="M235.41,68.56a.87.87,0,0,0,.19,1,1.35,1.35,0,0,0,1.15.19c.48-.28.42-.77.53-1.2-.29-.15-.39-.39-.72-.58a1.11,1.11,0,0,0-1.15.58Z" transform="translate(-23 -22)"/><path class="cls-1" d="M113.39,69.24c0,.23-.19.71.14.91a1,1,0,0,0,1,.1c.15-.2.58-.3.39-.68-.2-.58-1.06-1.16-1.49-.33Z" transform="translate(-23 -22)"/><path class="cls-1" d="M228.51,69.67a13.78,13.78,0,0,1,1.92,1.06,3.67,3.67,0,0,0,3.88.19c.05-.1.14-.39-.05-.43-1.53,0-2.64-1.35-4-1.55-.63.15-1.48.1-1.73.73Z" transform="translate(-23 -22)"/><path class="cls-1" d="M115.74,69.76a.86.86,0,0,0,.34,1.21c.23.09.62.19.81-.1s.38-.43.28-.82a.86.86,0,0,0-1.43-.29Z" transform="translate(-23 -22)"/><path class="cls-1" d="M120.9,71.4c.39-.24.68-.62.49-1.06-.34-.53-1.2-.91-1.63-.19-.43.38,0,.77.24,1.11.28,0,.57.33.9.14Z" transform="translate(-23 -22)"/><path class="cls-1" d="M170.56,79.2c.64,1.7,2.64.87,4,1a4.3,4.3,0,0,0,1.81-1.56c.05-.78.28-1.78-.17-2.43a7.08,7.08,0,0,1-1-2.69c-.22-1.29,1.37-.19,1.46-1.15-.45-.5-1.14-1.42-1.95-.78a1.58,1.58,0,0,0-.55,1.6c.18,1.24.73,2.39.91,3.53a4.3,4.3,0,0,1-.68-.6c-1-1.23-2.72-.86-3.82-2-1.31.09.87,1.47-.68,1.74-.05.32.32.5.32.82-.14.14-.32.14-.46.23a6.81,6.81,0,0,0,.77,2.29Z" transform="translate(-23 -22)"/><path class="cls-1" d="M125.07,73.09c.29-.24.67-.53.52-1a1,1,0,0,0-.9-.48c-.29.24-.63.48-.48,1,.19.24.43.72.86.53Z" transform="translate(-23 -22)"/><path class="cls-1" d="M154.3,72.75c-.52,1.88-1.48,4.39-.19,6.17.53,0,.39-.58.43-1a6.56,6.56,0,0,0,.57-5.39c-.14-.48-.71-.29-.81.19Z" transform="translate(-23 -22)"/><path class="cls-1" d="M196.17,78a5.38,5.38,0,0,0-.1-4.49c-.19-.38-.14-1.25-.81-1.1a11.76,11.76,0,0,1-.57,2.55,10.78,10.78,0,0,0,1.1,3.42l.38-.38Z" transform="translate(-23 -22)"/><path class="cls-1" d="M123.44,75.93a5.7,5.7,0,0,0,4.26-.82c.53-.38,1.34-.53,1.63-1.11-.1-.23-.34-.14-.43-.33a5.2,5.2,0,0,0-5.46,2.26Z" transform="translate(-23 -22)"/><path class="cls-1" d="M113,80.46c-1-1.73-1.53-3.47-3.3-4.72-.19,0-.48,0-.48.19a5.3,5.3,0,0,0,2.92,5c.53-.1.91.48,1.29.19.2-.39-.28-.44-.43-.63Z" transform="translate(-23 -22)"/><path class="cls-1" d="M193.78,78.34c.38-.14.48-.62.43-1.11a.85.85,0,0,0-1.29-.24c-.1.24-.38.44-.24.77a.86.86,0,0,0,1.1.58Z" transform="translate(-23 -22)"/><path class="cls-1" d="M232.1,83.31c2.69-.78,4.31-3.23,5.84-5.4a1.58,1.58,0,0,0-1.29.19c-2.53.63-3.4,3.32-5,5.06.09.24.28.15.47.15Z" transform="translate(-23 -22)"/><path class="cls-1" d="M106.84,80.94c.43,0,.24-.48.48-.67-.1-.49-.48-.63-.86-.82a.86.86,0,0,0-.63,1.06.78.78,0,0,0,1,.43Z" transform="translate(-23 -22)"/><path class="cls-1" d="M115,80.07a5.19,5.19,0,0,0,5.5,1.4c.24-.09.72-.09.58-.53-1.63-1.2-3.93-.82-5.89-1.3-.19,0-.19.24-.19.43Z" transform="translate(-23 -22)"/><path class="cls-1" d="M108.23,80.85a1.48,1.48,0,0,0,.62.62A1.05,1.05,0,0,0,110,81a1.29,1.29,0,0,0-.09-.72,1.41,1.41,0,0,0-.91-.39,1.15,1.15,0,0,0-.81.92Z" transform="translate(-23 -22)"/><path class="cls-1" d="M153.54,80.17a.7.7,0,0,0-.34.92,1,1,0,0,0,1,.38c.29-.19.67-.48.57-.91s-.81-.48-1.24-.39Z" transform="translate(-23 -22)"/><path class="cls-1" d="M238,80.85c-.09.33.2.53.24.77a1,1,0,0,0,.91.14c.33-.29.76-.53.62-1a5.57,5.57,0,0,0-.67-.48,1,1,0,0,0-1.1.58Z" transform="translate(-23 -22)"/><path class="cls-1" d="M241.87,82a.67.67,0,0,0,.86-.29c.24-.34.47-.68.19-1.11-.39,0-.58-.48-1-.29-.29.14-.72.43-.72.82s.43.58.72.87Z" transform="translate(-23 -22)"/><path class="cls-1" d="M104.2,83c.29.1.53-.1.78-.2.09-.28.38-.48.33-.81a.92.92,0,0,0-1.82.24,1.45,1.45,0,0,0,.71.77Z" transform="translate(-23 -22)"/><path class="cls-1" d="M204.5,82.05c-.15.44.19.72.48,1,.48.24.86-.1,1.14-.49a1.31,1.31,0,0,0-.05-.62.93.93,0,0,0-1.57.09Z" transform="translate(-23 -22)"/><path class="cls-1" d="M111.91,81.76c-.43.24-.38.68-.38,1.11.24.19.38.58.81.53s.57-.38.67-.72a.87.87,0,0,0-1.1-.92Z" transform="translate(-23 -22)"/><path class="cls-1" d="M106.65,83.16a1.13,1.13,0,0,0,1.29.68,1,1,0,0,0,.48-1.07c-.24-.24-.48-.72-.91-.72a1.34,1.34,0,0,0-.86,1.11Z" transform="translate(-23 -22)"/><path class="cls-1" d="M208.71,83.84a1,1,0,0,0,.52-1.16,1.09,1.09,0,0,0-1-.53c-.57.1-.61.62-.86,1,.25.39.72.87,1.3.68Z" transform="translate(-23 -22)"/><path class="cls-1" d="M110.43,83.6c.09-.25.38-.39.24-.73a.9.9,0,0,0-.92-.68c-.33.2-.66.44-.62.92s.44.44.62.68c.29.09.44-.19.68-.19Z" transform="translate(-23 -22)"/><path class="cls-1" d="M235.36,82.77c-.1.25-.19.68,0,.87s.53.49.91.39a1.43,1.43,0,0,0,.81-.77,1,1,0,0,0-1.77-.49Z" transform="translate(-23 -22)"/><path class="cls-1" d="M239,83.16c-.33.58.15.92.58,1.11a1.25,1.25,0,0,0,1.15-.82.92.92,0,0,0-1.15-.72c-.29,0-.39.24-.58.43Z" transform="translate(-23 -22)"/><path class="cls-1" d="M216.4,84.51a2.19,2.19,0,0,0,.92.39c.39-.29,1-.49.72-1.11a1.16,1.16,0,0,0-1-.53,1.12,1.12,0,0,0-.68,1.25Z" transform="translate(-23 -22)"/><path class="cls-1" d="M203.4,84.41a.81.81,0,0,0,.47.92c.44.29.82-.19,1.11-.39,0-.14.14-.48-.1-.57a.89.89,0,0,0-1.48,0Z" transform="translate(-23 -22)"/><path class="cls-1" d="M206.7,84.22a1.13,1.13,0,0,0-.63.39.79.79,0,0,0,.05.72c.34.1.72.48,1.06.15a.68.68,0,0,0,.38-.78c-.14-.38-.53-.38-.86-.48Z" transform="translate(-23 -22)"/><path class="cls-1" d="M126.26,85.67c0-.29.39-.63.1-.92a1.69,1.69,0,0,0-1-.48c-.38,0-.38.34-.67.43-.09.39-.14,1,.34,1.21a.93.93,0,0,0,1.19-.24Z" transform="translate(-23 -22)"/><path class="cls-1" d="M222.44,85.71c.33-.09.81-.29.72-.77-.34-.38-.76-.86-1.44-.57-.1.24-.38.43-.38.72.24.38.53.82,1.1.62Z" transform="translate(-23 -22)"/><path class="cls-1" d="M219.52,84.37c-.33.09-.48.38-.76.62,0,.29,0,.58.23.72a1,1,0,0,0,1.06.2c.19-.24.72-.49.52-1a1.25,1.25,0,0,0-1-.57Z" transform="translate(-23 -22)"/><path class="cls-1" d="M242.16,85.52l-.15-.14c-2-.1-4.16-1.69-6.22-.39-.38.25-1.1,0-1.25.63,1.92.72,4.5,1.64,6.51.43.34-.19,1.2.15,1.11-.53Z" transform="translate(-23 -22)"/><path class="cls-1" d="M104.83,86.39A7.77,7.77,0,0,0,111,85.28l.19-.34-.14-.14a8.63,8.63,0,0,0-6.41,1.3l.19.29Z" transform="translate(-23 -22)"/><path class="cls-1" d="M228,85.28c-.19-.48-.77-.53-1.1-.53-.38.15-.77.53-.63.92a1,1,0,0,0,1.25.53,1.1,1.1,0,0,0,.48-.92Z" transform="translate(-23 -22)"/><path class="cls-1" d="M119.18,86.44c.48-.19.38-.58.58-1-.29-.43-.72-.86-1.29-.57-.25.24-.63.38-.49.91a1,1,0,0,0,1.2.63Z" transform="translate(-23 -22)"/><path class="cls-1" d="M115.17,86.63a.86.86,0,0,0,1-.14c.09-.25.38-.44.24-.78a1.11,1.11,0,0,0-1-.77,3.07,3.07,0,0,0-.77.54c-.14.52.2.86.54,1.15Z" transform="translate(-23 -22)"/><path class="cls-1" d="M231.39,86.82a1,1,0,0,0-.87-.77c-.18.1-.52.1-.61.25a.75.75,0,0,0-.2.91,1.1,1.1,0,0,0,.91.48,1,1,0,0,0,.77-.87Z" transform="translate(-23 -22)"/><path class="cls-1" d="M111.53,89.18a7.22,7.22,0,0,0,1-2.07c0-.29.39-.43.24-.81l-.14-.1a12.52,12.52,0,0,0-4.84,4l.19.38c1.3-.34,2.59-.34,3.5-1.45Z" transform="translate(-23 -22)"/><path class="cls-1" d="M228.28,88.27c.33-.24.81-.34.72-.92a1,1,0,0,0-1.06-.62c-.28.24-.77.43-.62,1a1.09,1.09,0,0,0,1,.58Z" transform="translate(-23 -22)"/><path class="cls-1" d="M117.17,86.92A.8.8,0,0,0,116.7,88a1.26,1.26,0,0,0,1,.48c.29-.24.68-.38.73-.92-.1,0-.2-.14-.15-.24-.14-.43-.72-.48-1.15-.43Z" transform="translate(-23 -22)"/><path class="cls-1" d="M239.43,89.72c.37-.24.81-.54.62-1.11a1.17,1.17,0,0,0-1.15-.53c-.53.09-.62.67-1.1.72-.77-.87-1.91-2-3.3-1.88-.53.39.39.72.57,1.16a6.05,6.05,0,0,0,3.45,3c.14.1.48.15.57,0a1.53,1.53,0,0,0-.67-1c0-.62.67-.09,1-.33Z" transform="translate(-23 -22)"/><path class="cls-1" d="M242.35,88.22a.74.74,0,0,0,0-.92,1.31,1.31,0,0,0-1.1-.33,1.44,1.44,0,0,0-.71.62c-.1.39.14.63.37.87.44.05,1.16.24,1.4-.24Z" transform="translate(-23 -22)"/><path class="cls-1" d="M220.81,87.3c0,.34.34.58.48.78.62,1.93,2.73,2.94,4.36,3.85.09,0,.33,0,.43-.09A6.56,6.56,0,0,0,225,89.91c-.19-.53-.57-.77-.9-1.26-.87-.67-2.06-1.59-3.31-1.35Z" transform="translate(-23 -22)"/><path class="cls-1" d="M114.11,88.65a1.08,1.08,0,0,0,1.1.39c.24-.19.62-.53.43-1-.24-.24-.48-.63-.86-.58s-1,.62-.67,1.15Z" transform="translate(-23 -22)"/><path class="cls-1" d="M229.38,88.85c-.29.24,0,.62.05.87.33.33.71.19,1.1.14.14-.2.52-.39.47-.68-.33-.48-1.09-1-1.62-.33Z" transform="translate(-23 -22)"/><path class="cls-1" d="M242.25,91.07a1.15,1.15,0,0,0,.67-1.21,2.46,2.46,0,0,0-.58-.48,1.2,1.2,0,0,0-1.24.33c0,.34-.23.63,0,.92a1.27,1.27,0,0,0,1.15.44Z" transform="translate(-23 -22)"/><path class="cls-1" d="M209.81,96.51a7.14,7.14,0,0,0-6.51,1.3v.29a10.21,10.21,0,0,0,5-.72c.43-.44,1.49-.29,1.49-.87Z" transform="translate(-23 -22)"/><path class="cls-1" d="M139.28,99.4a.91.91,0,0,0,.72-.82,1.13,1.13,0,0,0-.91-.72c-.34.24-.82.48-.62,1.06a.91.91,0,0,0,.81.48Z" transform="translate(-23 -22)"/><path class="cls-1" d="M207.22,99.88c.34.19.63.44,1.06.34a1.34,1.34,0,0,0,.71-1.11,1,1,0,0,0-1.91,0c0,.24-.09.58.14.77Z" transform="translate(-23 -22)"/><path class="cls-1" d="M218.52,99c-2.49-.2-5.36-.2-7,1.73l.25.19,2.58,0a7.8,7.8,0,0,0,4.12-1.69V99Z" transform="translate(-23 -22)"/><path class="cls-1" d="M125.64,99.83a.87.87,0,0,0-.38,1.11.88.88,0,0,0,1,.44.9.9,0,0,0,.63-.92c-.2-.38-.72-1-1.25-.63Z" transform="translate(-23 -22)"/><path class="cls-1" d="M128.46,100.32c-.14.19-.42.14-.57.43a.61.61,0,0,0,.29.82.78.78,0,0,0,.91,0c.1-.24.33-.39.19-.63a1.37,1.37,0,0,0-.82-.62Z" transform="translate(-23 -22)"/><path class="cls-1" d="M109.18,105.38c.53.29,1.29,1,1.78.43-1.11-1.45-1.49-3-3.12-3.9a6.33,6.33,0,0,1-1-.53c-.34.09-.77-.53-1,.05,1.68,1.1,1.63,3,3.3,3.95Z" transform="translate(-23 -22)"/><path class="cls-1" d="M232.87,109.52v-.09l0,0c-.53-.67-1.68,0-2.31-.53a36.16,36.16,0,0,1-9.42-2.36c.05-.14.24-.1.39-.1a1.24,1.24,0,0,0,.76-1.2,1,1,0,0,0-1.82.29,1.18,1.18,0,0,0,.72.91c-.1.1-.29,0-.43,0-1.48-.67-2.92-1.3-4.36-2-.53-.1-1-.53-1.48-.63-1.1-.53-2.2-1.06-3.3-1.49-3.07-1.59-6.46-2.46-9.72-3.62-.71-.19-1.39-.39-2.05-.58-1.2-.33-2.4-.62-3.59-1-4.07-1-9.53-1.11-13.07,1.11-.57-.19-.9.72-1.19.14,1-2.65,3.92-3.51,6.55-3.61,19.19-.19,37.18-.34,56.08-.63a6.07,6.07,0,0,0,5.51-2.74,4.87,4.87,0,0,0,.33-4.44,3.83,3.83,0,0,0-3.59-2,3.28,3.28,0,0,0-2.68,2,2.44,2.44,0,0,0,.92,2.65.72.72,0,0,0,.95-.24c.24-.62-.44-.62-.53-1.11a1.59,1.59,0,0,1,.53-1.68c.48-.48,1.29-.25,1.86-.25a3.41,3.41,0,0,1,1.44,1.4,3.88,3.88,0,0,1,0,2.56,4.27,4.27,0,0,1-3,2.41c-4,.58-47.56.38-47.56.38-5.12.49-11-1-15.36,1.74-2,1-3,3.18-3.54,5.16a34.25,34.25,0,0,0-3.73,3.8l-.15-.14c.24-1.16.77-2.17,1-3.33.71-1,.71-2.26,1.24-3.32,1.82-2.94,3.54-5.93,6.37-8,1.2-1.6,3.3-1.31,5.11-1.31a12.71,12.71,0,0,0,6.66,1,.42.42,0,0,0,.14-.34c-.67-.63-1.77-.87-2.53-1.49-1.92-.92-3.74.29-5.74.14-.1-.1-.2-.14-.15-.29a28.06,28.06,0,0,1,5.94-3.18,40.35,40.35,0,0,1,5.21-2.07c.72,0,1.39-.63,2.06-.19-1.43,2.79-2.73,5.78-4.93,8.14-.72,0-1.15.77-1.87.82-.38.53-1.15.15-1.63.34-1.48.63-3.58.24-4.59,1.64a.71.71,0,0,0,.38.24c2.92,0,6.18.24,9.29.1a1.16,1.16,0,0,0,.76-.92c-.43-.82.15-1.54.53-2.17.24-1.16,1-1.88,1.34-3,1-2,2.15-3.9,3.25-5.88h0c.1,0,.19.19.39.15,2.15-.73,4.88,0,7.32-.1l.33.29h0a34.26,34.26,0,0,1-.43,7c-.81,2.79-4,2.51-6.32,3.13-.57.39-1.67.19-1.67,1.16,2.78.58,6,.24,9,.19.47-.19.57-.63.81-1.06.1-.63.72-1.16.53-1.83-.53-.67-.05-1.74-.2-2.65a1.44,1.44,0,0,0,0-.92c.39-1.39.29-3.08.58-4.43h0c.86.09,1.24,1.11,2.15,1.15.48-.67-.53-1-.77-1.39a5.24,5.24,0,0,1,3.21.48l-.47.53c-.29.53.14.92.57,1.11s.57-.15.82-.24c.61-.44-.06-.87.14-1.26a45.78,45.78,0,0,1,10.19,2.9c.9.28,1.76,1,2.78.91a13,13,0,0,0-3.64-1.93c-.82-.48-2-.53-2.59-1.2.15-.24.48-.15.63-.34a7.12,7.12,0,0,0,4.16-2.7c.09-.29.62-.19.57-.58-.43-.48-1.15.15-1.72.1-2,.39-2.87,2.75-4.88,3.18-2.44-.58-4.93-1.15-7.37-1.78a14.37,14.37,0,0,1-3.59-.78,24.72,24.72,0,0,1,.33-2.64,1.77,1.77,0,0,0,.2-1,2.38,2.38,0,0,1,.47-.48l1-.46a12.07,12.07,0,0,1,3.84,0,10.33,10.33,0,0,0,2.39.53,1.76,1.76,0,0,1,1.2-.24c1.53-.82.52-2.6.62-4h0a30.72,30.72,0,0,0,3.62-3.95.91.91,0,0,0-.52-.91.82.82,0,0,0-1,.19c-.57.44,0,1,0,1.49a8,8,0,0,1-2.2,1.89,1.9,1.9,0,0,0-.41.15l-.12-.3a6.4,6.4,0,0,1-.38-1c-.28-.34-.48-1-.76-1.3-.82-2.12-2.39-3.33-3.74-5-2.44-3.17-6.26-5-10.09-6.21s-7.61.38-11,1.59a2.76,2.76,0,0,1-1.87-2,9.61,9.61,0,0,1,.92-5.12c.14-1.2.95-2.12,1.29-3.22a34.33,34.33,0,0,0,2-8.29c.1-1.78-1.24-3-2.58-3.81a2.63,2.63,0,0,0-2.64.53,7,7,0,0,1-3.1,2.8c-.1.82.91.28,1.24.57,1,.2,2.24-.14,3.11.53.09,1.93-1,3.52-2,5a38.69,38.69,0,0,0-4.36,7.51l0,0v-2.5h0v0H167.13c-1.15-.39-2-1.59-3.31-1.59-2.68-1.06-4.44,1.73-7.17,1.4-.34.19-.24.53-.43.77s-.38,0-.53-.05c-.14-1.15-.53-2.22-.67-3.32-.28-.48-.14-1.16-.38-1.64-1.53-4.19,3.73-1,4.78-3.47.91-2.12-1.77-2.36-2.58-3.85v-.63c-.77-.77-1.58-1-2.06-2a7,7,0,0,0,.14-3.71c0-.29-.23-.67-.67-.53-.9,1.25-1.57,2.27-2.44,3.47A26.61,26.61,0,0,0,149,32.75c-.72-.1-1.39-.82-2.2-.53a.66.66,0,0,0,.14.72,7,7,0,0,0,2.34,4.73l.15.72c-.86,2-.62,4.24-.86,6.36a35.38,35.38,0,0,1-10.38,14.61c-2.73,3.08-6,6.07-6.41,10.31-.15.67.09,1.49-.44,2a16.16,16.16,0,0,1-4.44-2.36c-2.2-1.54-5.36-1.35-6.8-4.14-.57-1.11.15-2.22.67-3,1.62-1.54,1.39-4.29.53-6.17-.19,0-.24.2-.38.24-.15,2.85-2.4,4.82-1.54,8,.2.92.67,1.5.91,2.37a7.1,7.1,0,0,1-1.1-.25,11.92,11.92,0,0,0-3.2-.42c-2.2,1-5.22-.25-7,1.78-.29,0-.67.09-.57.53,1,0,2,.28,3.1.24,1.68.28,2.78-1.12,3.93-1.74h.29c.48-.48,1.29-.19,1.91-.29,3,.34,5.36,1.79,7.85,3.28v.19c-1,.44-2.06.72-3,1.25a6.57,6.57,0,0,0-2.68,3.23c-.76,1.21.24,2.27.72,3.28,0,.48.1,1.06.53,1.25,1.53-1.64.09-3.66.33-5.54.39-1.44,1.73-2.12,3.11-2.5,2.73-1.16,4.7,1.06,6.89,2.31,0,2.22.24,4.34-.24,6.5a5.68,5.68,0,0,1-2.24.34c-3.79.29-6.75,2.36-10.15,3.52-1.53.53-3.35.48-4.88,1.06,1.2.34,2.44-.1,3.69-.14,4.68-.68,8.27-4.29,13.34-3.67l.1.15A11.41,11.41,0,0,1,128.75,84c-.14-.53-.19-1-.67-1.25a.89.89,0,0,0-1.1.38.69.69,0,0,0,0,.73,1.56,1.56,0,0,0,1.06.67c-.1.43-.63.63-.91,1-1.34,2.27-4.07,1.35-5.65,2.94-.24.34-1.1.53-.72,1.06a7.17,7.17,0,0,0,4.93-1.25c1.77-2,3.64-3.86,5.4-5.74A5.73,5.73,0,0,1,130,86.92a5.19,5.19,0,0,0-1.29-.72,1.17,1.17,0,0,0-.86,1,2.83,2.83,0,0,0,.72,1c-1.63,1.15-3.68,1.25-5.55,1.78a95.35,95.35,0,0,1-10.43.77c-1.68-.1-3.59.48-5.17,0-1.82.33-3.78-.24-5.26.77-.2.24,0,.48,0,.72,2.2,1.45,5.22.29,7.71.73H128.8a8.46,8.46,0,0,0,3.88-.73c2.44-1.39,3.77-3.9,5-6.36a10.12,10.12,0,0,0,1-2.89A4.14,4.14,0,0,1,142.29,80a22,22,0,0,1-.81,7.32c-.29,1.55-1.29,3-.67,4.68.14.77,1,.77,1.58.87,5.79-.1,11.58-.34,17.7.09a14.4,14.4,0,0,0,3.25.48c.1-.14.43-.19.29-.48a1.8,1.8,0,0,0-1.15-1.34c-.09-.29-.52-.2-.66-.39-3.07-1.73-6.76-.82-10.34-.77-1.87.19-3.73.53-5.31-.53-.72-.87-.19-3.62-.19-3.62a35.24,35.24,0,0,1,1.5-5.25,34.64,34.64,0,0,1,5.05,2.6,31.92,31.92,0,0,1,4.78,2.56c6.51,3.61,10.82,9.59,13.74,16.24,0,.53.52,1.11.19,1.64-1-1.55-2.44-2.42-3.63-3.67A7.06,7.06,0,0,0,164,95.06c-.72-1-2.25-1.15-3.45-1.49l-17.41-.1c-14.17-.19-27.09.44-41.15.19-2-.19-4.36-.86-4.93-2.93a3.22,3.22,0,0,1,0-2.65,2.92,2.92,0,0,1,2.44-1.31,2.56,2.56,0,0,1,1.63,1.36c0,.62-.53,1.2-.77,1.73,0,.19.24.58.57.43a2.24,2.24,0,0,0,1.25-1.54c0-.34.19-.82-.15-1.06a3.17,3.17,0,0,0-2.24-2,4,4,0,0,0-3.26,1.1c-1.15,1-1.1,2.7-.76,4.05a6.45,6.45,0,0,0,5.16,3.86l46.56.19c4.54.24,9.67-.53,14.26.38A5.5,5.5,0,0,1,165.59,99c0,.09-.19,0-.33,0a20.77,20.77,0,0,0-13.59-2.79c-1.91-.1-3.63.63-5.36,1.11a2.77,2.77,0,0,1-2.35-.77c-1.72-1.54-4.73-1.45-6.93-.87,0,.15-.05.29.05.34,2.34-.19,3.73,1.83,5.84,2.07.47.1.86-.43,1.28,0a43.83,43.83,0,0,1-6.64,3c-.72-.14-1.11-.82-1.68-1.21-.91-1-2.58-.57-3.83-.67-.43.1-.81-.19-1.1,0a4.15,4.15,0,0,0,2.06,1.59c1.2.53,2.58,0,3.68.68a4.73,4.73,0,0,1-1,.67c-2.25.87-4.12,2.89-6.6,2.75a8.52,8.52,0,0,1-7.08-2.32,4.81,4.81,0,0,0-4.84-2.79c-.14.09-.33.09-.29.34,1.06.62,1.87,1.87,2.92,2.6.67.82,2,0,2.59.91A8.62,8.62,0,0,0,125.5,105a14.79,14.79,0,0,0,2.48.67l-.33.19c-4.35,1.45-9.38,1.59-14.26,1.4-1.44,0-2.82-.49-4.26-.44a2.63,2.63,0,0,0,1.15.68,2.78,2.78,0,0,1-1.29.38,9,9,0,0,0-1.82.49,4.72,4.72,0,0,0-2,.48,10.18,10.18,0,0,1-2.73,2.22c0,.19,0,.48.19.48.91-.39,2.06-.1,3-.48,1.57-.15,2.48-1.89,3.73-2.61,1.34-1.06,3.25-.82,4.88-.58,1,.25-.1.63.19,1.25.38.35.72.73,1.25.58a.73.73,0,0,1,.33-.23,1.09,1.09,0,0,0,0-1.21c.67-.43,1.59,0,2.3-.24,1.82,0,3.64-.44,5.41-.48.28,0,.62-.34.91,0-.14.38-.63.44-.43,1s.57.63,1,.72c.48-.19.91-.53.72-1.15-.1-.34-.47-.39-.72-.53,1-.48,2.16-.63,3.16-1.11a10,10,0,0,0,2-.67c.61,0,1.14-.63,1.71-.39a9.5,9.5,0,0,1-1,2.31c-.76,2.56-1.34,5.93,0,8.39.15,0,.19,0,.29-.1-1-2.55-.43-5.49.43-7.9.67-4.09,4.88-5.3,7.89-6.84l.15.19c-.82,2.12-2,4.14-1.82,6.7.09.43-.19.86,0,1.15a5,5,0,0,0,1.77-2.21c.33-2.17-.91-4.87,1.29-6.46,3.92-1.54,7.61-3.57,12.15-3.61.15.14.48-.1.53.18-1,1.07-2.34,2.08-2.77,3.38-1.53,2.12-1.49,5.73-.82,8.34.43,1.49-.86,2.31-1.48,3.47-.3.41-.39,1.11-.66,1.58l.94.11-1.57.36a1.23,1.23,0,0,1-.53,0c-.77-2,1.53-3.18.81-5.1a3.47,3.47,0,0,0-3.3-2,4,4,0,0,0-3.83,2c-1.1,2.41.29,4.91.72,7.27-.1.77.77,1.64,0,2.27a6.51,6.51,0,0,0-5.4-1.11c-.58.29-1.63-.1-1.91.58,2.05,1.1,4.68,1,7,.86.28-.09.47-.14.71,0,.2,1.25-.24,2.94.53,4a4.9,4.9,0,0,0,3.68,1.59c4.41-.14,8.33-1.44,12.35-2.46.62-.05,1.1-.38,1.77-.38a34.49,34.49,0,0,1,6.79-.92,12,12,0,0,0-2,4.34c-.58,1.3,1,1.49,1.48,2.22-1.48.43-2.54,1.44-3.93,2-3.05-.1-5.64,1.06-8.51,1.4,0,.62,1,.43,1.1,1.06-.14.43-.58.48-.91.72,0,.29,0,.34.29.38.29-.33.91-.09,1.19-.43,1,0,1.77-.29,2.68-.34a8.56,8.56,0,0,0,2.44-1c1-.29,1.63-1,2.63-1.25,1.44,0,2.73-.48,4.07-.58v.29c-1.1,1.78-2.24,3.61-3.39,5.3a.53.53,0,0,0,.33.77,2.5,2.5,0,0,0,1.87-.29,57.88,57.88,0,0,0,2.72-5.16c.34-1.64,1.53-2.5,2.73-3.61.19-.1.48-.39.67-.1a21.17,21.17,0,0,0-2.29,3.38c-.39,1.35-.49,3.08.71,4.19.57.48,1.44.34,2.2.39,1.87-1,4.26.57,5.7-1.26.86-.14,1,.87,1.48,1.35.81.24,1.67,1.06,2.49.48-.05-.53-.63-1-.91-1.49-.58-1-1.29-1.83-1.82-2.75a9.49,9.49,0,0,1-.77-1.78,14.66,14.66,0,0,0,2.59,1,16.74,16.74,0,0,1,2.59.77,8.88,8.88,0,0,0,2.39,1.84c1.19.57,2.53.67,3.77,1.15.49,0,1.2.44,1.54,0a2.14,2.14,0,0,0-.72-.53c-.15-.62.86-.29,1.19-.77a.67.67,0,0,0-.55-.37c-.69-.36-2.39-.49-2.85-.74a9.78,9.78,0,0,1-1.67-.53c-2.87,0-4.45-2.6-6.74-3.56.52-.49,1.33-.88,1.67-1.59a2.7,2.7,0,0,0,.14-2.56c-.43-1.49-2.34-1.3-3.44-2.12l.14-.15a20.11,20.11,0,0,1,5.17.68c4.59.62,8.85,2.36,13.64,2.46,2.63,0,5.93.14,7.22-2.41.24-1.5.53-3,.77-4.48.57-2.41,2.15-4.63,1.91-7.28a5,5,0,0,0-3.25-3,4.14,4.14,0,0,0-4.16,1c-1.73,1.4-.53,3.71-.48,5.59,0,.39.05.68-.34.87-6.93-.63-13.39-2.36-20.29-3.08-1.58-.28-3.17-.21-4.68-.52l-1.92-.21c-6,.2-12,.53-17.56,2-1.19.38-2.54.48-3.73.91-.86-.14-1.58.48-2.39.25a5.13,5.13,0,0,0,1.62-3.19,1.34,1.34,0,0,0,.91,1c.34-.53-.28-.92-.33-1.45.76-.43,1.1.53,1.72.73a12.14,12.14,0,0,0,2.92.67l.33-.34c-1-1.64-3.16-1.92-5-2-1-1.59-1-3.57-.86-5.5a8.19,8.19,0,0,1,.95-3A7.36,7.36,0,0,1,152.53,99a6.76,6.76,0,0,1,3-1.63h.15a.21.21,0,0,0,.05.14c-1.29,1-1.44,2.41-2.2,3.67a4,4,0,0,0-.43,4.18c.28.63.14,1.6.81,2a10.65,10.65,0,0,0,1-2.94c-.14-1.59-1.1-3.08-.19-4.63a4,4,0,0,1,2.58-2.12c2.64-.24,4.93,1.11,7.23,2.12.48.34,1.29.63,1.39,1.31a3.91,3.91,0,0,1-6.13,3.18,3.33,3.33,0,0,1-.76-2.94,2,2,0,0,1,2.1-.77c.48.24.91.72,1.53.43a.59.59,0,0,0,.19-.77c-.52-.29-.71-1-1.43-1.11a3.07,3.07,0,0,0-2.63.53,3.38,3.38,0,0,0-1.1,3.37,4.12,4.12,0,0,0,3,3.09,5.56,5.56,0,0,0,5.89-2,6.45,6.45,0,0,0,1.06-2.07,12.54,12.54,0,0,1,4.92,6.36,10.33,10.33,0,0,1,.05,2.41l1.67.15a1.61,1.61,0,0,1,.15-1.16,14.41,14.41,0,0,1,4.93-7.9c.81-.48.61.62.81,1a6.44,6.44,0,0,0,4.16,3.66,5.24,5.24,0,0,0,5.17-1.68c.62-1.16,1.39-2.85.33-4a3.26,3.26,0,0,0-2.62-1.25,3.21,3.21,0,0,0-2.63,1.78c0,.39-.06.82.28,1,.19,0,.58,0,.72-.24.1-.72.71-1.06,1.29-1.45a1.49,1.49,0,0,1,1.53.29,2.57,2.57,0,0,1,.67,1.88,2.93,2.93,0,0,1-1.58,2.27,4.86,4.86,0,0,1-4.59-.44,10.17,10.17,0,0,1-1.34-2.12,3.41,3.41,0,0,1,0-2.21,16.07,16.07,0,0,1,6.84-2.41,4.92,4.92,0,0,1,2.54,1.58c2.2,2.27-.48,5.5,1.05,8,.58-.1.58-.87.81-1.35.72-1.73-.19-3.62-.62-5.3A9.74,9.74,0,0,0,190.33,98a1.31,1.31,0,0,1,.58-.09,12,12,0,0,1,2.92,2.5,13,13,0,0,1,1.86,7.91c-.38,1.44-1.91,2.12-3.11,2.65a4.36,4.36,0,0,0-1.29,1.54c.58.33,1.39,0,2-.24.91-.34,1.44-1.5,2.06-2,.09,0,.05.19.09.29,0,.52-.23,1.25.24,1.39a16.72,16.72,0,0,0,.43-2.46,4.66,4.66,0,0,1,.91,2.41c.43.87,1.15,2,2.3,2.17.29-.43-.05-.87-.14-1.25-.15-1.21-1.15-1.83-1.82-2.7-1.68-2.31-.91-5.93-2.2-8.53A10.3,10.3,0,0,0,192.54,98l.19-.19c2.34,0,4.3.72,6.46,1.16,2.63,1.3,6.46,1,7.7,4.43a12.65,12.65,0,0,0,2.73,5.2l.14-.09a2,2,0,0,0,0-1.79c-.29-2.4-2.39-3-3.5-5l.15-.2a33.53,33.53,0,0,1,3.49,1.11c3.83,1.06,6.5,4.82,7,8.72a18.93,18.93,0,0,1-1.77,8.24c-.15.39-.82.82-.39,1.16.53-.39.63-1,.91-1.45a13.37,13.37,0,0,0,1.59-9.68c-.06-.63-.77-1.11-.44-1.73a1.56,1.56,0,0,0,.82.43c.29-.2.72-.2.91-.53s.24-.63,0-.87a1.3,1.3,0,0,0-1.39-.34,2.36,2.36,0,0,0-.58,1.06,9.78,9.78,0,0,0-1.72-2.55l.1-.14c2.15.72,4.11,1.77,6.32,2.36a3.18,3.18,0,0,0,1.67.52,46.46,46.46,0,0,0,5.88,1.5c1.44-.15,2.64.53,4.07.19ZM156,132.07l-.67-.62c.33-.43,1-.19,1.58-.48a8.22,8.22,0,0,1,4.06-.58c-1.44,1.16-3.3,1.3-5,1.68Zm29.87-.76a21.25,21.25,0,0,0,5.1,1.2c-.15.66-1.31,0-1.18,1-1.48-.57-3.21-.86-4.31-2,.1,0,.2-.19.39-.14ZM141,110.82a3.45,3.45,0,0,1,1.15-2.41,4,4,0,0,1,3.78.15,1.8,1.8,0,0,1,.77.91,2.17,2.17,0,0,1-.72,2.17h-.48a5.45,5.45,0,0,1,.28-2.17c0-.58-.52-.62-.9-.87a2.84,2.84,0,0,0-2.16.49,2.16,2.16,0,0,0-.62,2.12c.33.53.05,1.25.24,1.83l-.14.19a3,3,0,0,1-1.2-2.41Zm2.25,1.38c.72.53,1.72.29,2.58.44a1.75,1.75,0,0,1-.24,1.63c-.81-.19-1.86-.1-2.3-.87.1-.33-.13-.81,0-1.2Zm-.14-1.62c.14-.38,0-1,.52-1.06.34-.09.86-.09.91.29a9.18,9.18,0,0,1-.24,1.69,1.09,1.09,0,0,1-1.19-.92Zm22.44,15.47a5.21,5.21,0,0,1,1.53-4.34,2.77,2.77,0,0,1,2.06.1c-1.25.34-2.83.62-3.11,2.22.05.62-.15,1,.14,1.49.52.92,1.72.53,2.39,1.25a.62.62,0,0,1-.43.58,18.89,18.89,0,0,1-2.58-1.3Zm-1.72,3.33c1.15-.49,2.34-1.5,3.63-1.06a6.61,6.61,0,0,1-3.63,1.06Zm4.54.48a35.4,35.4,0,0,1-2.34,4.53c-.1.24-.48.29-.77.34,0-.68.67-1.21,1-1.79,1-1.3,1.3-2.69,2.44-3.95.29.29-.28.48-.28.87Zm1.2-2.8v.19h-.1V127h.19a.33.33,0,0,0-.19,0Zm-.43-1.3a11.55,11.55,0,0,1-2.3-.57c-.48-.49,0-1,0-1.55.67-1.06,2.58-1.59,3.49-.62a5.09,5.09,0,0,1-1.19,2.74Zm1.05,0a8.13,8.13,0,0,1,.76-2,4,4,0,0,1-.76,2Zm.52-3.9c-.62-.15-1-.87-1.62-.87a3.91,3.91,0,0,1,1.81,0c.24.34-.13.63-.19.92Zm.58,1.45h0v-.53h0v.53Zm.05,2.21c-.05-.19.09-.43.14-.67.24-.24.48.19.58.34a.73.73,0,0,1-.72.33Zm.72-3a5.19,5.19,0,0,1,.71-1.78,2.83,2.83,0,0,1,1.29.19c.1,1,1.3,2.27,0,3.09-.43.19-1.05.62-1.53.19a1.33,1.33,0,0,1-.47-1.69Zm3.49-1.35c-.11-.43.42-.09.62-.28l1.48.09c-.77-.09-1.72,1.69-2.1.19Zm2.39.63c-.58.19-1,.87-1.58,1a1.94,1.94,0,0,1,1.58-1Zm-2,3v.14h-.05v-.14Zm.09,2.94c-.05.09,0,.24-.09.34l-1.1-.87a1.13,1.13,0,0,1,1.19.53Zm-1.29-1.49a.35.35,0,0,1,.43,0Zm-.67-.73c.2-.29.43-.72.77-.72a.2.2,0,0,0,.09.14,2.3,2.3,0,0,1-.86.58Zm-1.1-.1h-.19l.29-.28c.14.09-.05.19-.1.28Zm.14,1.83c.63-.67,1.2.39,1.44.92.72,1.06,2.59,2,1.87,3.47-.92.82-2.35.05-3.35.68-.53,0-1.43.09-1.72-.44a28.42,28.42,0,0,1,1.76-4.63Zm-1.33.92.24-.38a20.66,20.66,0,0,1-1.58,3.47c-.29-1.16.91-2.08,1.34-3.09Zm2.1,5.74c-.91.05-2.3.58-3.16-.2.06-.38-.38-.58-.33-1,.76-.29,1.43.63,2.15-.05a19.75,19.75,0,0,1,3.35.1c.53.14,1.34-.87,1.44.14-.39,1.59-2.3.48-3.45,1Zm2.78-6.94v-.15h.09V127Zm.28,3c0,.48.53.68.24,1.11a1.48,1.48,0,0,1-.24-1.11Zm1.34,2.9L178,133c-.23-.19-.14-.72-.09-1,.28.24.53.58.33.92Zm2.39,1.15c0,.15-.28.15-.37,0a25.52,25.52,0,0,1-3-5.78l.19,0c1.15,1.88,2.06,3.95,3.2,5.78Zm1.78-4.43a.19.19,0,0,0-.1.19c-1.39.05-2.3-.77-3.35-1.49l-.05-.24a8.89,8.89,0,0,1,3.5,1.54Zm-1.25-6.41c.57.14.62.77.67,1.25a2.85,2.85,0,0,1-3.49,2.56,3.07,3.07,0,0,0,2.87-1.64l-.05-2.17Zm-1.05-.19a3.21,3.21,0,0,1,.43,2.12c-.48.91-1.44.91-2.3,1.11a1.51,1.51,0,0,1-1.1-.35.48.48,0,0,0-.19-.48c.15-.62-1.1-1.25-.24-1.78.76-.72,2.59-2.36,3.4-.62Zm21.58-15a3.34,3.34,0,0,1,2.78.1,2.15,2.15,0,0,1,1.58,1c.71.67.52,1.87.38,2.74a2.75,2.75,0,0,1-2.06,1.64c0-1.16,1.1-2,.72-3.28a2.89,2.89,0,0,0-3-1c-.43.29-.24.77-.38,1.21l-.19,1.58c-1,0-1-.86-1.3-1.54a2.83,2.83,0,0,1,1.49-2.51Zm.87,4.34c.52-.53-.15-3.56,1.33-1.59,0,.39.05,1-.33,1.26s-.62.57-1,.33Zm.52,1.21c0,.77-.67.57-1.05.87h-1.15a2.63,2.63,0,0,1-.15-1.35,9.35,9.35,0,0,1,2.35.48Zm-48,.14a81.5,81.5,0,0,1,11.05-1.68c4.31,0,8.71-.29,12.83.43,1.34,0,2.49.38,3.78.48,2.68.34,5.17,1.07,7.89,1.25a13.1,13.1,0,0,0,1.44.25c4.31.67,9.14,1.87,13.25,0,0,1.73-.71,3.32-1,5-.39.48,0,1.25-.53,1.68,0,.87-.72,1.3-1.33,1.64-5.7,1.25-11.3-.67-16.8-1.64-7.71-1.68-16.7-2.16-24.55-.38-3.68.67-7.27,1.54-10.81,2.55-2.21.29-4.6.63-6.7,0-1.72-.83-1-3-1.53-4.58a25.89,25.89,0,0,0-.39-3.33,2.85,2.85,0,0,1-.19-1.25,20.63,20.63,0,0,1,2.2.82c4,.77,7.61-.53,11.34-1.21Zm51.68-34.21c0-.1-.19-.15-.14-.29,1.72-.44,3.2-1.45,4.93-1.88h0l.19.57-.1,1.6Zm0-4a5.87,5.87,0,0,0,.86-1.3c.05-.48-.19-.67-.48-1,.34-.34.87-.24,1.3-.34a5.41,5.41,0,0,1,2.67,3.19,33,33,0,0,1-5.83,2.16h0a17.8,17.8,0,0,1,1.48-2.7Zm-17-11.4c1.53,2.54,3.44,5.44,6.28,6.39,1.53,1.25,3.45,2.75,5.5,1.64,1.1-.34,1.2,1.21,1.73,1.83.57,1.79-.73,3-.82,4.68l-.07.15a1.91,1.91,0,0,1-1.12,1,11.28,11.28,0,0,1-2.2.63c-6.23,2.41-12.68,5-17.61,9.88a5.65,5.65,0,0,0,.47-2,4,4,0,0,0-.52-2.11,3.19,3.19,0,0,1-.36-1.27l6-3.81c1.52-.7,2.62-3,2.62-5.57l0-15.73.08,4.37Zm-1,11.7a5.79,5.79,0,0,1-2.17,4.45l-12.57,8h-.07a1.54,1.54,0,0,1-1,.34,1.56,1.56,0,0,1-1-.36l-12.55-8a5.75,5.75,0,0,1-2.16-4.45V69.46a.24.24,0,0,0,.38,0c1.25-.83.86-2.66.86-3.91.29-1.5-.76-2.21-1.19-3.52a.12.12,0,0,1-.05,0V51h5.21a4.22,4.22,0,0,0,1.15.5l.36-.5h24.75V75.89ZM154.59,57.57a3.93,3.93,0,0,1,1.63-2.75.55.55,0,0,1,.24.34h0v5.25c-.46-.93-2.36-1.64-1.88-2.84Zm9.18,31.86a90.86,90.86,0,0,0-15.88-9.61c.5-1.43.93-2.6,1.05-2.83a8.28,8.28,0,0,0,.29-2.22,9.34,9.34,0,0,0,.29-3.27A22.61,22.61,0,0,1,151,67c.29-.73.53-1.5.81-2.22a7.45,7.45,0,0,1,1-2.51c1.48.94,2.92,1,3.7,2.48l0,10.78c0,2.6,1.1,4.87,2.62,5.57l5.19,3.3c.07,1.66-1,3.14-.53,4.91v.1Zm7.37,10.06A34.79,34.79,0,0,0,165,90.68c-.1-.44-.53-.82-.29-1.3a3.52,3.52,0,0,0,.62-3.66c-.09-.25-.37-.54-.33-.78l-.4-.32,7.32,4.64a1.54,1.54,0,0,0,2.2.13l2.48-1.57c-1.81,2.69,1.13,6.62-1.17,9.17v.19c-.67.87-1,1.74-1.91,2.31-1.15-.48-1.58-1.78-2.25-2.74-1.06-1-1.06-3.09-.44-4.48.44-1.4-.28-2.6-.42-3.86l-.48-.28a5.54,5.54,0,0,0-.67,5.63c.48.87.53,2.08,1.24,2.8a15.6,15.6,0,0,0,2.06,3.57c.19.48-.29.57-.53.81-.52-.33-.43-1.11-.91-1.45Zm3.21,5.4c-.19.58-.58,1.06-.52,1.69l-.2.1c.14-.73-.57-1.16-.38-1.93-.38-.58-.38-1.3-.72-1.93s.38-1.1.72-1.63c.67.28.91.91,1.38,1.49.29.82-.33,1.44-.28,2.21Zm-.29-4.62a16.06,16.06,0,0,0,3.4-7c.34-.24.1-.86.43-1.16-.09-.76.43-1.53.05-2.16.3-1.06-1.4-2-.31-2.7l-.22.1,3.05-1.93a6.65,6.65,0,0,0-.37,4.05c.15.86.86,1.88.2,2.64-2.3,2.8-3.6,6.17-5.13,9.36-.57-.1-.86-.63-1.1-1.16Z" transform="translate(-23 -22)"/><path class="cls-1" d="M226.27,101.86a7.3,7.3,0,0,0-6.94,2.26c-.1.1-.05.25.09.34a1.3,1.3,0,0,0,.63-.14c2.39-.1,4.74-.53,6.41-2,.09-.24-.19-.29-.19-.43Z" transform="translate(-23 -22)"/><path class="cls-1" d="M217.79,103.93c.54-.24,1-.63.78-1.3a.91.91,0,0,0-1.49-.29c-.15.24-.48.44-.34.82a1.38,1.38,0,0,0,1,.77Z" transform="translate(-23 -22)"/><path class="cls-1" d="M125.88,103.26c.09.29.29.67.62.72a.94.94,0,0,0,.86-.25,1,1,0,0,0,.24-1c-.28-.44-.71-.39-1.1-.39a1,1,0,0,0-.62.92Z" transform="translate(-23 -22)"/><path class="cls-1" d="M119,106.19v-.33c-1.82-1.3-3.25-3.23-5.65-3.23-.28.1,0,.29,0,.43a6.49,6.49,0,0,1,2.54,2.42,3.71,3.71,0,0,0,3.11.71Z" transform="translate(-23 -22)"/><path class="cls-1" d="M232.87,102.63a8.86,8.86,0,0,0-4.26,4.58c.29.33.58-.15.91-.15,2-.72,2.92-2.74,4-4.38a1.53,1.53,0,0,0-.67-.05Z" transform="translate(-23 -22)"/><path class="cls-1" d="M128.9,103.64c.24.29.43.58.81.53.34-.29.72-.38.67-.91a1,1,0,0,0-1-.53c-.23.24-.67.43-.47.91Z" transform="translate(-23 -22)"/><path class="cls-1" d="M239.57,103.55l-.24-.29c-1.53.62-2.49,2.26-3.16,3.71-.24.43-.81.91-.57,1.39,1.53-.24,2.34-1.49,3.3-2.6.43-.67.24-1.59.67-2.21Z" transform="translate(-23 -22)"/><path class="cls-1" d="M102.72,104.08a.9.9,0,0,0,.38,1.15,1.11,1.11,0,0,0,1.1-.19.93.93,0,0,0,0-1.06c-.33-.58-1.19-.34-1.48.1Z" transform="translate(-23 -22)"/><path class="cls-1" d="M100.33,104.17a.94.94,0,0,0-.48,1,1,1,0,0,0,1.1.63,1.1,1.1,0,0,0,.67-.58c0-.24-.09-.44-.14-.67a1,1,0,0,0-1.15-.39Z" transform="translate(-23 -22)"/><path class="cls-1" d="M105.3,105.42c.39.39.78.88,1.45.58.57-.09.47-.77.37-1.15a1.32,1.32,0,0,0-1.24-.39,1.11,1.11,0,0,0-.58,1Z" transform="translate(-23 -22)"/><path class="cls-1" d="M114.07,105.09a1.87,1.87,0,0,0-.68.53c-.29.33.24.57.34.86.24,0,.67.15.91-.09s.28-.58.33-.92c-.19-.38-.62-.23-.9-.38Z" transform="translate(-23 -22)"/><path class="cls-1" d="M242.34,106.05a1.28,1.28,0,0,0,1.11.53c.38,0,.57-.43.71-.77-.09-.53-.71-.72-1.19-.72s-.81.43-.63,1Z" transform="translate(-23 -22)"/><path class="cls-1" d="M235.41,106.05a1.05,1.05,0,0,0-2.06.1,1.15,1.15,0,0,0,1.48.72c.2-.15.63-.43.58-.82Z" transform="translate(-23 -22)"/><path class="cls-1" d="M240,105.57c-.29.29-.63.62-.2,1a1.12,1.12,0,0,0,1.15.2,1,1,0,0,0,.43-.82c-.14-.58-1-.63-1.38-.39Z" transform="translate(-23 -22)"/><path class="cls-1" d="M101.81,106.3a.89.89,0,0,0-.47,1,1.09,1.09,0,0,0,1,.68,1,1,0,0,0,.57-1.21,1.09,1.09,0,0,0-1.15-.47Z" transform="translate(-23 -22)"/><path class="cls-1" d="M232.34,108.56a1.06,1.06,0,0,0,.67-1.26.93.93,0,0,0-1.62-.09c-.38.24-.14.77.05,1a1,1,0,0,0,.9.34Z" transform="translate(-23 -22)"/><path class="cls-1" d="M127.7,107.21c-.29.1-.38.29-.63.48-.13.43.15.72.39,1s.53.15.71,0c.16-.29.73-.39.53-.92-.28-.28-.47-.77-1-.62Z" transform="translate(-23 -22)"/><path class="cls-1" d="M243.3,108.17a1.09,1.09,0,0,0-1.1-.67c-.33.1-.38.34-.67.53,0,.43,0,.82.43,1.06a1.27,1.27,0,0,0,1.1-.2c.05-.24.34-.38.24-.72Z" transform="translate(-23 -22)"/><path class="cls-1" d="M242.06,112.46v-.38a12.81,12.81,0,0,0-3-2.56c0-.29.34-.14.53-.19.38-.14.91-.44.71-1a1.61,1.61,0,0,0-.71-.68c-.39-.1-.57.19-.86.25-.82.57.52,1-.1,1.73-.86,0-2-.19-2.63.43.38.34,1,.34,1.29.58a6.45,6.45,0,0,0,4.74,1.83Z" transform="translate(-23 -22)"/><path class="cls-1" d="M219,108.22c-.14.48.24.77.49,1.11a1,1,0,0,0,1.05-.2c0-.23.33-.52.24-.77a1,1,0,0,0-1.78-.14Z" transform="translate(-23 -22)"/><path class="cls-1" d="M113.77,110.05c0-.72-.9-1-1.43-.58,0,.25-.29.44-.24.78a1,1,0,0,0,.87.57c.47,0,.66-.33.8-.77Z" transform="translate(-23 -22)"/><path class="cls-1" d="M113.68,112.94c-.19.43-1,1-.81,1.4a4.92,4.92,0,0,0,3.83-3.18c.23-.67,1-1.06,1-1.73h-.29c-1.38,1-2.92,1.87-3.68,3.51Z" transform="translate(-23 -22)"/><path class="cls-1" d="M217.85,109.67c-.2.38-.44.77-.06,1.15.25.2.58.53,1,.39a1.26,1.26,0,0,0,.82-1.11c-.39-.53-1.2-1-1.77-.43Z" transform="translate(-23 -22)"/><path class="cls-1" d="M221.29,109.86c-.33,0-.43.43-.67.68a1.05,1.05,0,0,0,.63.86c.14,0,.37-.05.47.1a1.18,1.18,0,0,0,.86-1.06c-.14-.58-.86-.63-1.29-.58Z" transform="translate(-23 -22)"/><path class="cls-1" d="M125.06,110.39c-.33-.29-.47-.72-1-.53-.23.24-.66.53-.57,1a.93.93,0,0,0,.91.58,1,1,0,0,0,.71-1Z" transform="translate(-23 -22)"/><path class="cls-1" d="M126.6,110.82c.14.39.53.49.86.58a1.13,1.13,0,0,0,.91-.82,1,1,0,0,0-1.1-.72c-.33.24-.72.48-.67,1Z" transform="translate(-23 -22)"/><path class="cls-1" d="M233.44,114.73c.1-.35-.33-.58-.57-.78a9.45,9.45,0,0,0-2.72-3.51c-.39-.15-.87-.68-1.3-.24a9.86,9.86,0,0,0,2.49,3.85c.72.15,1.34,1,2.1.68Z" transform="translate(-23 -22)"/><path class="cls-1" d="M233.2,111.93c.43.1,1.06.19,1.34-.29a1.15,1.15,0,0,0,.1-1.06c-.33-.14-.58-.43-.91-.38s-.76.24-.91.62.15.82.38,1.11Z" transform="translate(-23 -22)"/><path class="cls-1" d="M131.86,111.5c-.29.29-.81.38-.57,1a.93.93,0,0,0,1.15.58c.48-.24.38-.82.33-1.2-.29-.24-.52-.44-.91-.34Z" transform="translate(-23 -22)"/><path class="cls-1" d="M222.44,115l-1.34-1.45c-.48-.14-.82-1-1.3-.58a.41.41,0,0,0,.2.49c.81,2.16,1.29,4.33,3.45,5.87h.18c.29-.24-.09-.57.05-.91a7,7,0,0,0-1.24-3.42Z" transform="translate(-23 -22)"/><path class="cls-1" d="M136.69,112.94c-1.48-.19-2.81.49-4.21.92a.39.39,0,0,0-.24.43c2.21,1.3,4.89.49,6.8-.86,0,0-.1-.05,0-.1l-2.3-.39Z" transform="translate(-23 -22)"/><path class="cls-1" d="M121.86,117.42c.48.29.72-.24,1.1-.38,2-.48,3.49-2.46,5.12-3.47v-.38c-2.53.24-5.36,1.63-6.22,4.23Z" transform="translate(-23 -22)"/><path class="cls-1" d="M219.62,115.74c-.24-.39-.58-.39-1-.48-.24.14-.57.19-.71.53s0,.77.43,1a.65.65,0,0,0,.9,0,.77.77,0,0,0,.39-1Z" transform="translate(-23 -22)"/><path class="cls-1" d="M215.64,116a.49.49,0,0,0-.61,0,10.47,10.47,0,0,0-4.89.24c-.24.24-.72.1-.76.48,1.43.39,2.92,1.16,4.54.58a2.65,2.65,0,0,0,1.72-1.25Z" transform="translate(-23 -22)"/><path class="cls-1" d="M127.51,118.15c.38-.15.43-.58.57-.77a1,1,0,0,0-1-.82c-.28.09-.67.19-.76.53s.09.57.19.87a1,1,0,0,0,1,.19Z" transform="translate(-23 -22)"/><path class="cls-1" d="M129.8,117c-.24.14-.57.19-.67.44a1.13,1.13,0,0,0,.15,1,1.06,1.06,0,0,0,1,.34,1.77,1.77,0,0,0,.66-.92c-.19-.38-.61-.87-1.1-.82Z" transform="translate(-23 -22)"/><path class="cls-1" d="M217.08,117.76c-.14.34-.62.58-.33,1,.14.24.23.62.57.67a.81.81,0,0,0,1.05-.19,1.2,1.2,0,0,0,.33-.92,1,1,0,0,0-1.62-.53Z" transform="translate(-23 -22)"/><path class="cls-1" d="M219.86,119.5c.57.23.76-.39,1-.63.1-.2,0-.43-.1-.68-.24-.14-.53-.52-.95-.38a.92.92,0,0,0-.58,1.3c.15.1.29.48.58.39Z" transform="translate(-23 -22)"/><path class="cls-1" d="M127.89,119a1.29,1.29,0,0,0-.58,1.39c.2.63.87.63,1.39.53a1.28,1.28,0,0,0,.48-1.3,1.15,1.15,0,0,0-1.29-.62Z" transform="translate(-23 -22)"/><path class="cls-1" d="M127.89,123.3v.25c.77.48,1.53-.25,2.3-.39,1.34-.77,1.62-2.41,1.72-3.76-1.2,1.35-3,2.46-4,3.9Z" transform="translate(-23 -22)"/><path class="cls-1" d="M210.14,119.83a1,1,0,0,0-.62.53c-.14.34-.1.82.24,1s.86.29,1.15,0,.48-.48.28-.77a1.31,1.31,0,0,0-1.05-.68Z" transform="translate(-23 -22)"/><path class="cls-1" d="M137.37,126.54c-.39-1.21,0-2.7-.68-3.81.05-.29-.33-.29-.23-.63a13.06,13.06,0,0,0-1.82-2,.27.27,0,0,0-.34.1c.48,1.69.34,3.62,1.39,5.06.52.49.86,1.4,1.68,1.31Z" transform="translate(-23 -22)"/><path class="cls-1" d="M212.49,120.32c-.24.24-.63.38-.48.86a1.8,1.8,0,0,0,.91.44c.24-.24.67-.34.67-.73a.79.79,0,0,0-1.1-.57Z" transform="translate(-23 -22)"/><path class="cls-1" d="M216.22,120.94c-.19,1.93,1.19,3.33,2.58,4.58H219c.25.1.29-.19.29-.33,0-2-1.48-3.19-2.78-4.3l-.28,0Z" transform="translate(-23 -22)"/><path class="cls-1" d="M214.54,123c-.23.24-.76.48-.71,1,.09.72.9.77,1.43.63a1.11,1.11,0,0,0,.43-.92,1,1,0,0,0-1.15-.67Z" transform="translate(-23 -22)"/><path class="cls-1" d="M208.8,128.7c1.25-1.35,3.06-2.26,3.73-4-.14-.38.63-.91-.14-1A6.73,6.73,0,0,0,208.7,128c0,.19-.14.58.1.72Z" transform="translate(-23 -22)"/><path class="cls-1" d="M214.4,126.43a1.42,1.42,0,0,0,1.06.54c.23-.25.66-.44.66-.87a1,1,0,0,0-1.1-.53c-.28.24-.67.38-.62.86Z" transform="translate(-23 -22)"/><path class="cls-1" d="M166.33,41h14.19a1.19,1.19,0,0,0,0-2.38H166.33a1.19,1.19,0,0,0,0,2.38Zm13.73-2h.52c1,0,.93,1.68,0,1.68-.75,0-1.92-1.68-.53-1.68Zm-5.82,0h1.39c.74,0,2.06,1.68.67,1.68h-1.38c-.75,0-2.07-1.68-.68-1.68Zm-5.81,0h1.39c.74,0,2.05,1.68.66,1.68h-1.39c-.73,0-2.05-1.68-.66-1.68Z" transform="translate(-23 -22)"/><path class="cls-1" d="M180.38,62.67,179.27,67l2.72-1,2.66,1-.81-4.31,1.87.51L185,60.86l.72-2.42-2.11.44,1.05-4-2.66,1-2.72-1,1,4-2.07-.34.58,2.32-.58,2.42,2.17-.61ZM182,59c.67,1.55,2-.09,2,1.55,0,.73-.05,1.57-.67,1.57H181.1c-1,0-1-.65-1-1.62,0-1.4,1.34-.19,1.83-1.5Z" transform="translate(-23 -22)"/><path class="cls-1" d="M182.09,60.81c.61,0,1.46.42,1.46-.21,0-.88-.85-.58-1.46-.58s-1.47-.3-1.47.58c0,.63.84.21,1.47.21Z" transform="translate(-23 -22)"/><polygon class="cls-1" points="150.88 37.79 151.1 37.39 150.63 37.43 150.36 36.94 150.08 37.44 149.61 37.39 149.83 37.79 149.47 38.16 149.93 38.25 149.93 38.76 150.36 38.44 150.78 38.76 150.78 38.25 151.24 38.16 150.88 37.79 150.88 37.79"/><polygon class="cls-1" points="147.82 40.96 147.82 41.47 148.25 41.15 148.68 41.47 148.68 40.96 149.14 40.88 148.78 40.5 149 40.1 148.53 40.14 148.25 39.65 147.97 40.15 147.51 40.1 147.72 40.5 147.37 40.88 147.82 40.96 147.82 40.96"/><polygon class="cls-1" points="151.3 40.16 150.94 40.53 151.39 40.62 151.39 41.12 151.82 40.8 152.25 41.12 152.25 40.62 152.7 40.53 152.36 40.16 152.58 39.75 152.1 39.79 151.82 39.31 151.54 39.8 151.08 39.75 151.3 40.16 151.3 40.16"/><polygon class="cls-1" points="152.48 42.37 152.21 42.39 152.06 42.12 151.9 42.4 151.63 42.37 151.76 42.6 151.56 42.81 151.82 42.86 151.82 43.15 152.06 42.97 152.3 43.15 152.3 42.86 152.55 42.81 152.36 42.6 152.48 42.37 152.48 42.37"/><polygon class="cls-1" points="150.52 43.12 149.71 43.18 149.23 42.35 148.75 43.2 147.96 43.12 148.33 43.81 147.72 44.45 148.5 44.59 148.5 45.46 149.23 44.91 149.97 45.46 149.97 44.59 150.75 44.45 150.14 43.81 150.52 43.12 150.52 43.12"/><polygon class="cls-1" points="147.15 10.11 146.88 14.58 150.19 11.58 153.49 14.58 153.22 10.11 157.61 9.38 153.97 6.8 156.14 2.89 151.88 4.15 150.19 0 148.51 4.15 144.23 2.89 146.4 6.8 142.77 9.38 147.15 10.11 147.15 10.11"/><path class="cls-1" d="M152.2,117.05l.63,2.66a1.49,1.49,0,0,0,1,1.28,3.47,3.47,0,0,0,2,0,3.11,3.11,0,0,0,1.73-1,2.27,2.27,0,0,0,.17-1.67l-.6-2.53c-.13-.53.07-.67.58-.86l0-.2-2.09.5,0,.2c.82-.17,1,.08,1.12.56l.57,2.44a1.54,1.54,0,0,1-1.28,2.13c-1.37.32-1.62-.77-1.73-1.23l-.63-2.65c-.16-.71.13-.78.75-1l-.05-.2-3.21.77.05.2c.54-.08.79-.12.95.55Z" transform="translate(-23 -22)"/><path class="cls-1" d="M160.55,117.55l.7.11c.67.11,1.16.2,1.28.73,0,.11.15.91-1,1.16a2,2,0,0,1-2.34-1.27l-.27.06.43,2,.28-.07c0-.13,0-.29.23-.33a9.12,9.12,0,0,0,1.69-.09c1.75-.4,2.14-1.5,2-2.2a1.68,1.68,0,0,0-1.37-1.24l-1.53-.27c-.88-.16-1.1-.29-1.19-.72s.36-.88.86-1a2,2,0,0,1,2.18,1.06l.27-.06-.38-1.73-.28.06c0,.16,0,.29-.26.34a8.66,8.66,0,0,0-1.55.07c-1.81.4-1.86,1.56-1.75,2s.23,1.06,2,1.36Z" transform="translate(-23 -22)"/><path class="cls-1" d="M164.05,115.18c.07-1.33,1.07-1.46,1.74-1.56l.41,4.3c.07.68-.17.72-.87.84l0,.2,3.47-.33,0-.21c-.73,0-1,0-1-.65l-.41-4.3c.67,0,1.68-.09,2,1.19l.28,0-.18-1.64-5.83.56.13,1.65.28,0Z" transform="translate(-23 -22)"/><path class="cls-1" d="M173.52,118.36c-.65-.09-.86-.12-.85-.77l0-1.61H173l2,2.6,1.83,0h0l2,.24,0-.2c-.33-.06-.79-.14-.76-.45a5.59,5.59,0,0,1,.56-1l2.18.28a4.09,4.09,0,0,1,.31,1.13c0,.27-.21.26-.82.22l0,.21,3.14.39,0-.21c-.46,0-.58-.33-.91-1.25l-1.63-4.55-.28,0-2.69,4.18c-.35.54-.53.79-1,.82a.43.43,0,0,1-.31-.16l-1.91-2.36c.53-.13,1.54-.37,1.55-1.38,0-1.37-2-1.48-2.72-1.49l-3.14-.06v.2c.55,0,.85.07.84.78l-.07,3.61c0,.67-.21.69-.87.74v.21l3.29.06v-.2Zm6.37-3.3.73,2.1-1.88-.24,1.15-1.86Zm-7.14-1.43c.05-.25.07-.34.61-.34a1,1,0,0,1,1.16,1.21c0,1.06-.53,1.24-1.81,1.22l0-2.09Z" transform="translate(-23 -22)"/><path class="cls-1" d="M189.75,118.85l-.29,0a2.38,2.38,0,0,1-2.71,1.13c-.64-.12-.84-.22-.77-.61l.69-3.8c.13-.71.42-.66,1.1-.57l0-.19-3.35-.62,0,.2c.43.1.82.19.72.72l-.7,3.91c-.1.49-.39.46-.93.41l0,.21,5.55,1,.73-1.76Z" transform="translate(-23 -22)"/><path class="cls-1" d="M189.36,120.73l3.34.7,0-.2c-.51-.14-.89-.24-.79-.76l.81-3.88c.11-.54.57-.46,1-.38l.05-.19-3.35-.71,0,.2c.43.12.88.23.77.76l-.81,3.88c-.1.49-.48.45-1,.38l0,.2Z" transform="translate(-23 -22)"/><path class="cls-1" d="M192.91,121.41l0,.2,2,.21,0-.21c-.33,0-.8-.12-.77-.42a4.88,4.88,0,0,1,.54-1l2.19.22a4.28,4.28,0,0,1,.33,1.13c0,.27-.2.26-.81.24l0,.2,3.15.33,0-.2c-.47,0-.6-.33-.94-1.25l-1.73-4.5-.27,0L194,120.56c-.35.58-.51.84-1,.85Zm3-3.42.78,2.08-1.89-.2,1.11-1.88Z" transform="translate(-23 -22)"/><path class="cls-1" d="M171.48,57.26v.58a.28.28,0,0,0,.27.28h2.09a.29.29,0,0,0,.28-.28v-.63a1.3,1.3,0,0,0,.42-1c0-2-1.11-.12-1.72-1.8-.44,1.42-1.77.23-1.77,1.75a1.2,1.2,0,0,0,.43,1.1Zm1.23-1.71c.57,0,1.47-.21,1.47.75,0,.68-.78.29-1.35.29s-1.35.39-1.35-.29c0-1,.66-.75,1.23-.75Z" transform="translate(-23 -22)"/><path class="cls-1" d="M191.66,80.36a.8.8,0,1,0,0-1.59.8.8,0,1,0,0,1.59Z" transform="translate(-23 -22)"/><path class="cls-1" d="M187.42,52.53a.45.45,0,0,0,.43-.47s-.43-.85-.43-.85a4.75,4.75,0,0,0-.43.85.45.45,0,0,0,.43.47Z" transform="translate(-23 -22)"/><path class="cls-1" d="M158.52,52.53a.45.45,0,0,0,.43-.47s-.44-.85-.44-.85a4.8,4.8,0,0,0-.42.85.45.45,0,0,0,.43.47Z" transform="translate(-23 -22)"/><path class="cls-1" d="M165.75,52.53a.45.45,0,0,0,.42-.47s-.43-.85-.43-.85a4.8,4.8,0,0,0-.42.85.45.45,0,0,0,.43.47Z" transform="translate(-23 -22)"/><path class="cls-1" d="M173,52.53a.45.45,0,0,0,.43-.47s-.44-.85-.44-.85a4.8,4.8,0,0,0-.42.85.45.45,0,0,0,.43.47Z" transform="translate(-23 -22)"/><path class="cls-1" d="M180.19,52.53a.45.45,0,0,0,.43-.47s-.43-.85-.43-.85a4.75,4.75,0,0,0-.43.85.46.46,0,0,0,.43.47Z" transform="translate(-23 -22)"/><path class="cls-1" d="M158.09,62a.46.46,0,0,0,.43.47A.45.45,0,0,0,159,62a5.17,5.17,0,0,0-.42-.85s-.44.83-.44.85Z" transform="translate(-23 -22)"/><path class="cls-1" d="M158.09,71.62a.46.46,0,0,0,.43.47.45.45,0,0,0,.43-.47,4.8,4.8,0,0,0-.42-.85s-.44.83-.44.85Z" transform="translate(-23 -22)"/><path class="cls-1" d="M159.25,79.24a.45.45,0,0,0,.42.47.46.46,0,0,0,.44-.47,5,5,0,0,0-.43-.84l-.43.84Z" transform="translate(-23 -22)"/><path class="cls-1" d="M165.31,83.3a.43.43,0,1,0,.86,0,5.12,5.12,0,0,0-.43-.85l-.43.85Z" transform="translate(-23 -22)"/><path class="cls-1" d="M187.36,62a.45.45,0,0,0,.43.47.46.46,0,0,0,.43-.47s-.44-.85-.44-.85a5.17,5.17,0,0,0-.42.85Z" transform="translate(-23 -22)"/><path class="cls-1" d="M187.36,71.62a.45.45,0,0,0,.43.47.46.46,0,0,0,.43-.47s-.44-.85-.44-.85a4.8,4.8,0,0,0-.42.85Z" transform="translate(-23 -22)"/><path class="cls-1" d="M186.2,79.24a.43.43,0,1,0,.86,0l-.44-.84a5,5,0,0,0-.42.84Z" transform="translate(-23 -22)"/><path class="cls-1" d="M180.14,83.3a.45.45,0,0,0,.43.48.46.46,0,0,0,.43-.48l-.44-.85a5.17,5.17,0,0,0-.42.85Z" transform="translate(-23 -22)"/><path class="cls-1" d="M172.76,87.6a.43.43,0,1,0,.86,0l-.43-.84a5,5,0,0,0-.43.84Z" transform="translate(-23 -22)"/><path class="cls-1" d="M179.89,75.35c-.4.83-.4,2-1.35,2.43a.75.75,0,0,0-.28.73l.23.19c.59-.32,1.72-.42,1.64-1.42a3.42,3.42,0,0,1,.86-1.19.94.94,0,0,1,1,.5A1.8,1.8,0,0,1,180.8,78c-.08.09,0,.23,0,.37.18.32.68.18,1,.14.77-.51,1.09-1.42,1.77-1.7.09.46-.91.6-.27,1,.41-.09.95.05,1.23-.5-.32-.78,1.08-1.14.22-1.83,0-.68.73-1,.69-1.69-.28-.74-1.14-.74-1.37-1.42a1,1,0,0,1,.95,0c.09.14.32.18.61.08l.27-.78c0-.05-.31-.36-.51-.31-.77.18-1.59.28-2.05,1a1.53,1.53,0,0,0,.73,1.19c.27-.09.32.18.5.32a.32.32,0,0,1-.32.41c-.54-.55-1.5.18-1.91-.5.19-.69.55-1.47,0-2.11,0-.14.27-.27.14-.41-.23-.64-.92-.14-1.33-.14a1.77,1.77,0,0,0-1.64.82,1.35,1.35,0,0,0,.37.69c.18,0,.27,0,.32.19l-.46.27a.9.9,0,0,1,.18.51c-.31.13-.63-.33-.77-.56s.05-1-.45-1.1a2,2,0,0,0-.4.14,1.32,1.32,0,0,0-.18.76,3.21,3.21,0,0,0,.17.81,7.69,7.69,0,0,1,1.72,1.68Z" transform="translate(-23 -22)"/><path class="cls-1" d="M151.74,79.12a.8.8,0,1,0,0,1.59.8.8,0,1,0,0-1.59Z" transform="translate(-23 -22)"/><path class="cls-1" d="M104,107.23a.89.89,0,1,0,.89-.85.87.87,0,0,0-.89.85Z" transform="translate(-23 -22)"/><path class="cls-1" d="M145.86,122.61l0,.2,2-.23,0-.21c-.32,0-.79,0-.83-.25a4.87,4.87,0,0,1,.31-1.1l2.18-.26a4.48,4.48,0,0,1,.57,1c0,.28-.14.3-.74.41l0,.21,3.15-.37,0-.2c-.47.07-.65-.19-1.19-1l-2.66-4-.27,0-1.64,4.7c-.22.65-.32.94-.84,1.07Zm2.23-4,1.21,1.86-1.89.23.68-2.09Z" transform="translate(-23 -22)"/><path class="cls-1" d="M542,109.18H547v-19a13.49,13.49,0,0,1,3.47-2.93,7.75,7.75,0,0,1,4-1.16,5.33,5.33,0,0,1,4.28,1.67c1,1.11,1.42,2.84,1.42,5.17v16.2h5.06v-17q0-5.28-2.42-8t-7-2.72a10.6,10.6,0,0,0-5.35,1.3,14.06,14.06,0,0,0-4.12,3.6l.7,1.46V82.05H542v27.13Zm22.87-19a15.51,15.51,0,0,1,3.64-2.88,8.36,8.36,0,0,1,4.22-1.16,5.26,5.26,0,0,1,4.23,1.67c1,1.11,1.42,2.84,1.42,5.17v16.2h5.06v-17c0-3.52-.8-6.19-2.42-8s-4-2.72-7-2.72a11.65,11.65,0,0,0-5.52,1.27,18.28,18.28,0,0,0-4.66,3.63l1,3.77Zm26.43,30.63a9.9,9.9,0,0,0,7-2.59q2.81-2.58,5.06-8.45l11.09-27.72H609l-7.65,20.19-8.61-20.19h-5.6l12.22,27.56.11-3.55-1,2.58a14.29,14.29,0,0,1-3.66,5.79,7.28,7.28,0,0,1-4.79,1.69h-.27l1,4.69Zm54.07-12a31.32,31.32,0,0,0,6.43-2.58V90h-13v4.79h7.64v7.8a18.29,18.29,0,0,1-3.82,1.38,22.55,22.55,0,0,1-5.22.51,14.62,14.62,0,0,1-7.35-1.81,12.63,12.63,0,0,1-5-5.06,15.45,15.45,0,0,1-1.77-7.5A16,16,0,0,1,625,82.54a12.88,12.88,0,0,1,4.74-5.09,12.64,12.64,0,0,1,6.65-1.8,12.24,12.24,0,0,1,6.16,1.48,16.46,16.46,0,0,1,4.66,4l4.3-3.29a18.21,18.21,0,0,0-6.35-5.43,18.56,18.56,0,0,0-8.72-2,19,19,0,0,0-9.58,2.45A17.69,17.69,0,0,0,620,79.82a20.9,20.9,0,0,0-2.5,10.31,20.6,20.6,0,0,0,2.48,10.2,17.43,17.43,0,0,0,7,6.91,21.2,21.2,0,0,0,10.41,2.48,30.08,30.08,0,0,0,7.94-.92Zm35.34-.88a13,13,0,0,0,5.11-5,15.46,15.46,0,0,0,0-14.59,12.94,12.94,0,0,0-5.11-5,16.38,16.38,0,0,0-15,0,13.08,13.08,0,0,0-5.14,5,15.19,15.19,0,0,0,0,14.53,13.11,13.11,0,0,0,5.14,5,16.46,16.46,0,0,0,15,0Zm-12.22-4.12a8.42,8.42,0,0,1-3.28-3.31,10.56,10.56,0,0,1,0-9.74,8.38,8.38,0,0,1,3.28-3.32,10.09,10.09,0,0,1,9.47,0,8.32,8.32,0,0,1,3.26,3.29,10.8,10.8,0,0,1,0,9.74A8.25,8.25,0,0,1,678,103.8a10.15,10.15,0,0,1-9.5,0Zm32.19,5.38h4.52l11.3-27.13h-5.33l-9,22.45h1.62l-8.88-22.45h-5.6l11.36,27.13Z" transform="translate(-23 -22)"/></svg>